<svg width="268" height="262" viewBox="0 0 268 262" fill="none" xmlns="http://www.w3.org/2000/svg">
<g clip-path="url(#clip0_166_459)">
<path d="M252.137 72.8448C249.628 68.3186 246.844 63.9501 243.801 59.764C241.669 56.8272 239.416 53.9883 237.043 51.2474H237.037C232.742 46.2857 228.071 41.6623 223.065 37.4183C222.041 36.5483 221.002 35.696 219.95 34.8616C210.452 27.3057 199.92 21.1514 188.675 16.5867L188.774 33.0194L189.85 220.343H96.584L91.3387 33.3729L91.7295 17.2025C46.0039 36.4338 13.8977 81.6498 13.8977 134.367C13.8892 145.249 15.2774 156.086 18.0283 166.614C19.1902 171.064 20.597 175.447 22.2421 179.742C22.836 181.301 23.4625 182.846 24.1217 184.377C24.4395 185.123 24.7632 185.862 25.0987 186.598C25.5293 187.561 25.9777 188.52 26.438 189.467C26.7943 190.212 27.1606 190.953 27.5367 191.688C28.0207 192.653 28.5206 193.61 29.0363 194.56C29.4342 195.305 29.844 196.044 30.2598 196.781C36.9669 208.645 45.5317 219.357 55.6284 228.51C58.5059 231.121 61.5002 233.595 64.6112 235.934C86.6241 252.475 113.414 261.419 140.949 261.419C168.484 261.419 195.274 252.475 217.286 235.934C218.979 234.663 220.637 233.35 222.26 231.994C223.338 231.097 224.398 230.183 225.441 229.253C225.717 229.006 225.993 228.76 226.266 228.51C235.575 220.072 243.586 210.305 250.04 199.525C252.411 195.573 254.56 191.492 256.478 187.302C256.986 186.198 257.478 185.083 257.954 183.959C260.146 178.803 261.989 173.506 263.471 168.104C263.7 167.27 263.921 166.432 264.134 165.592V165.589C264.169 165.444 264.208 165.295 264.244 165.15C264.463 164.265 264.674 163.374 264.876 162.483V162.48C265.529 159.608 266.081 156.702 266.53 153.761C266.586 153.384 266.643 153.007 266.696 152.63C266.717 152.493 266.738 152.357 266.753 152.22V152.217C267.074 149.946 267.334 147.657 267.534 145.352C267.843 141.732 267.998 138.07 268 134.367C268.034 112.844 262.574 91.6684 252.137 72.8448V72.8448Z" fill="#F2F2F2"/>
<path d="M239.66 211.061C247.18 200.9 250.072 186.588 244.222 175.382C238.736 187.986 228.968 198.244 216.647 204.34C211.887 206.674 206.349 208.774 204.146 213.596C202.775 216.597 203.036 220.14 204.138 223.249C205.24 226.358 207.115 229.124 208.97 231.852L209.067 232.67C220.745 227.829 232.14 221.222 239.66 211.061Z" fill="#E6E6E6"/>
<path d="M243.972 175.472C243.636 185.929 240.012 196.015 233.617 204.296C232.271 206.104 230.65 207.687 228.812 208.99C226.98 210.2 224.857 210.898 222.664 211.011C220.622 211.158 218.516 211.071 216.544 211.711C215.54 212.054 214.62 212.605 213.844 213.328C213.067 214.052 212.453 214.931 212.04 215.909C210.949 218.318 210.788 220.975 210.721 223.58C210.647 226.471 210.616 229.476 209.252 232.105C209.087 232.423 209.59 232.661 209.755 232.343C212.128 227.77 210.588 222.421 212.002 217.614C212.662 215.37 214.002 213.312 216.241 212.413C218.2 211.627 220.372 211.715 222.441 211.585C224.582 211.506 226.671 210.904 228.525 209.832C230.424 208.627 232.104 207.109 233.493 205.341C236.684 201.41 239.237 197.002 241.059 192.279C243.168 186.899 244.341 181.198 244.528 175.423C244.539 175.066 243.984 175.117 243.972 175.472V175.472Z" fill="white"/>
<path d="M235.833 201.751C237.368 202.635 239.167 202.945 240.91 202.625C242.652 202.306 244.224 201.377 245.345 200.005C245.571 199.726 245.149 199.362 244.923 199.641C243.882 200.921 242.417 201.786 240.794 202.08C239.171 202.375 237.496 202.079 236.071 201.247C235.761 201.067 235.525 201.572 235.833 201.751Z" fill="white"/>
<path d="M223.71 211.073C222.738 207.585 223.117 203.858 224.771 200.636C224.935 200.317 224.431 200.079 224.267 200.398C222.552 203.754 222.166 207.633 223.185 211.261C223.283 211.607 223.807 211.417 223.71 211.073H223.71Z" fill="white"/>
<path d="M242.429 186.925C241.764 186.706 241.164 186.326 240.682 185.818C240.2 185.31 239.851 184.691 239.668 184.015C239.575 183.668 239.051 183.858 239.143 184.203C239.349 184.948 239.735 185.632 240.266 186.194C240.797 186.757 241.458 187.18 242.191 187.428C242.258 187.458 242.334 187.46 242.403 187.435C242.472 187.411 242.529 187.361 242.562 187.296C242.593 187.229 242.597 187.152 242.572 187.083C242.547 187.014 242.496 186.957 242.429 186.925V186.925Z" fill="white"/>
<path d="M202.361 166.464C202.413 166.682 202.465 166.9 202.514 167.122C203.196 170.059 203.639 173.047 203.837 176.056C203.856 176.288 203.872 176.524 203.885 176.757C204.285 184.011 203.336 191.277 201.085 198.184C200.186 200.932 199.08 203.608 197.776 206.188C195.974 209.751 193.737 213.471 193.233 217.308C193.176 217.708 193.143 218.111 193.136 218.515L208.062 232.726C208.112 232.741 208.159 232.76 208.21 232.775L208.78 233.37C208.856 233.242 208.933 233.107 209.01 232.979C209.054 232.904 209.096 232.827 209.14 232.753C209.169 232.702 209.198 232.651 209.227 232.607C209.236 232.591 209.246 232.574 209.252 232.56C209.281 232.516 209.303 232.472 209.329 232.432C209.759 231.68 210.185 230.923 210.607 230.162C210.61 230.159 210.61 230.159 210.61 230.152C213.807 224.346 216.546 218.223 218.27 211.878C218.322 211.687 218.377 211.493 218.422 211.295C219.183 208.431 219.708 205.509 219.993 202.559C220.144 200.944 220.213 199.321 220.2 197.699C220.158 193.506 219.456 189.346 218.121 185.371C215.459 177.447 210.292 170.463 202.927 166.743C202.738 166.648 202.553 166.555 202.361 166.464Z" fill="#E6E6E6"/>
<path d="M202.215 166.685C208.242 175.238 211.421 185.473 211.3 195.935C211.314 198.188 210.973 200.429 210.289 202.575C209.556 204.645 208.281 206.48 206.599 207.891C205.056 209.237 203.322 210.436 202.134 212.134C201.538 213.012 201.135 214.006 200.951 215.051C200.766 216.096 200.805 217.168 201.064 218.197C201.643 220.778 203.115 222.997 204.63 225.116C206.311 227.47 208.095 229.888 208.589 232.808C208.649 233.162 209.194 233.048 209.135 232.695C208.276 227.615 203.826 224.272 202.06 219.582C201.236 217.393 201.067 214.943 202.314 212.877C203.405 211.07 205.192 209.833 206.765 208.483C208.427 207.131 209.733 205.393 210.568 203.42C211.359 201.315 211.786 199.091 211.83 196.843C212.012 191.784 211.396 186.727 210.007 181.859C208.452 176.294 205.957 171.036 202.629 166.312C202.423 166.02 202.01 166.395 202.215 166.685V166.685Z" fill="white"/>
<path d="M211.538 192.568C213.296 192.35 214.919 191.514 216.118 190.21C217.316 188.906 218.012 187.217 218.081 185.447C218.094 185.089 217.538 185.052 217.525 185.411C217.464 187.06 216.816 188.632 215.697 189.844C214.578 191.057 213.063 191.83 211.425 192.023C211.069 192.065 211.184 192.611 211.538 192.568H211.538Z" fill="white"/>
<path d="M207.471 207.311C204.594 205.11 202.653 201.907 202.034 198.338C201.973 197.985 201.427 198.098 201.488 198.451C202.14 202.163 204.167 205.493 207.165 207.776C207.451 207.994 207.755 207.527 207.471 207.311V207.311Z" fill="white"/>
<path d="M207.878 176.759C207.215 176.985 206.507 177.043 205.816 176.928C205.126 176.812 204.475 176.527 203.921 176.098C203.638 175.877 203.334 176.344 203.615 176.564C204.229 177.035 204.948 177.349 205.711 177.478C206.474 177.607 207.257 177.548 207.991 177.305C208.062 177.287 208.124 177.244 208.164 177.183C208.205 177.122 208.22 177.047 208.207 176.975C208.192 176.903 208.149 176.84 208.087 176.799C208.026 176.759 207.95 176.744 207.878 176.759Z" fill="white"/>
<path d="M5.93123 154.152C-0.73818 143.414 -2.4576 128.914 4.28342 118.22C8.72702 131.229 17.6288 142.247 29.4137 149.324C33.9686 152.037 39.3172 154.58 41.1214 159.565C42.2441 162.667 41.6959 166.177 40.3448 169.186C38.9935 172.196 36.9003 174.801 34.8299 177.369L34.6661 178.176C23.421 172.401 12.6006 164.891 5.93123 154.152Z" fill="#E6E6E6"/>
<path d="M4.5248 118.33C4.01075 128.781 6.80263 139.127 12.5039 147.901C13.6977 149.811 15.1852 151.522 16.9117 152.969C18.639 154.325 20.6978 155.193 22.8742 155.484C24.898 155.796 27.0042 155.88 28.917 156.679C29.89 157.102 30.7626 157.726 31.4775 158.51C32.1924 159.294 32.7335 160.221 33.0652 161.228C33.9573 163.718 33.9014 166.38 33.7564 168.981C33.5954 171.869 33.3823 174.867 34.5282 177.597C34.667 177.928 34.1455 178.124 34.0069 177.794C32.0133 173.043 33.9838 167.838 32.965 162.931C32.4896 160.641 31.3213 158.481 29.1622 157.403C27.2741 156.46 25.1022 156.371 23.0503 156.073C20.923 155.821 18.89 155.051 17.1287 153.832C15.3341 152.477 13.7832 150.827 12.5423 148.952C9.68135 144.775 7.49492 140.174 6.06311 135.318C4.39827 129.785 3.6922 124.008 3.97547 118.237C3.99315 117.879 4.54237 117.975 4.52481 118.33L4.5248 118.33Z" fill="white"/>
<path d="M10.5019 145.184C8.90001 145.941 7.08132 146.103 5.3706 145.643C3.65988 145.183 2.16852 144.129 1.16286 142.67C0.960388 142.375 1.41055 142.046 1.61329 142.342C2.54725 143.702 3.93656 144.683 5.53045 145.109C7.12435 145.534 8.81785 145.376 10.3053 144.663C10.6287 144.508 10.8234 145.03 10.5019 145.184V145.184Z" fill="white"/>
<path d="M21.8272 155.461C23.0793 152.063 23.0045 148.317 21.6179 144.972C21.4802 144.64 22.0017 144.444 22.1392 144.775C23.5757 148.259 23.6455 152.157 22.3348 155.69C22.2097 156.027 21.7027 155.796 21.8272 155.461V155.461Z" fill="white"/>
<path d="M5.13203 129.871C5.81284 129.707 6.44234 129.377 6.964 128.91C7.48567 128.443 7.88316 127.854 8.12079 127.195C8.24162 126.857 8.74845 127.089 8.6284 127.424C8.36248 128.151 7.9227 128.801 7.34748 129.319C6.77226 129.836 6.07911 130.204 5.3286 130.392C5.25934 130.416 5.18369 130.412 5.11702 130.382C5.05034 130.352 4.99766 130.297 4.96966 130.23C4.94398 130.161 4.94663 130.084 4.97703 130.017C5.00744 129.95 5.06314 129.897 5.13203 129.871V129.871Z" fill="white"/>
<path d="M46.7304 112.734C46.6609 112.947 46.5915 113.16 46.5248 113.377C45.606 116.249 44.9221 119.191 44.4797 122.174C44.4419 122.404 44.407 122.638 44.3758 122.869C43.3867 130.066 43.7425 137.385 45.4251 144.453C46.0973 147.265 46.9824 150.022 48.0727 152.699C49.5788 156.397 51.506 160.286 51.6969 164.152C51.7213 164.555 51.7208 164.959 51.6953 165.362L35.6634 178.313C35.6122 178.324 35.5637 178.339 35.5123 178.351L34.8959 178.897C34.83 178.763 34.7645 178.622 34.6987 178.488C34.6601 178.41 34.6251 178.33 34.5866 178.252C34.562 178.199 34.5376 178.147 34.5125 178.1C34.5042 178.083 34.4962 178.065 34.4909 178.051C34.4657 178.005 34.4472 177.96 34.425 177.917C34.057 177.132 33.6939 176.344 33.3356 175.551C33.3327 175.548 33.3327 175.548 33.3333 175.541C30.6191 169.495 28.3859 163.169 27.1838 156.705C27.1477 156.51 27.1084 156.312 27.0797 156.112C26.554 153.195 26.2676 150.24 26.2233 147.277C26.2042 145.654 26.2674 144.032 26.4124 142.415C26.7952 138.24 27.8324 134.15 29.486 130.297C32.7835 122.616 38.5009 116.075 46.1441 112.965C46.3397 112.886 46.5318 112.809 46.7304 112.734Z" fill="#E6E6E6"/>
<path d="M46.8587 112.966C40.1563 121.001 36.1559 130.943 35.4258 141.381C35.2288 143.625 35.3867 145.886 35.8937 148.081C36.4568 150.204 37.5779 152.136 39.1405 153.679C40.5687 155.146 42.1994 156.482 43.246 158.271C43.7681 159.195 44.089 160.219 44.1878 161.275C44.2865 162.332 44.1608 163.397 43.8189 164.402C43.032 166.927 41.3849 169.018 39.703 171.008C37.8356 173.217 35.8609 175.482 35.1317 178.352C35.0433 178.7 34.5089 178.542 34.5971 178.195C35.8658 173.201 40.573 170.232 42.7137 165.701C43.7126 163.586 44.0804 161.158 43.0055 158.997C42.0656 157.108 40.3851 155.729 38.9262 154.256C37.3798 152.773 36.2198 150.935 35.5476 148.901C34.9304 146.739 34.6857 144.487 34.8238 142.243C35.0543 137.186 36.0785 132.196 37.859 127.456C39.861 122.036 42.7755 116.998 46.4763 112.561C46.7055 112.286 47.0864 112.693 46.8587 112.966V112.966Z" fill="white"/>
<path d="M35.4631 138.006C33.7285 137.646 32.1785 136.681 31.0898 135.283C30.0011 133.886 29.4446 132.147 29.5197 130.377C29.5235 130.304 29.5551 130.237 29.6079 130.187C29.6606 130.138 29.7305 130.111 29.8028 130.112C29.875 130.113 29.944 130.143 29.9951 130.194C30.0463 130.245 30.0756 130.314 30.0769 130.386C30.0039 132.034 30.5224 133.654 31.5389 134.953C32.5554 136.252 34.0028 137.146 35.62 137.472C35.9714 137.543 35.8125 138.077 35.4631 138.006V138.006Z" fill="white"/>
<path d="M38.3184 153.03C41.3641 151.071 43.5593 148.035 44.4664 144.529C44.556 144.182 45.0904 144.339 45.001 144.686C44.0502 148.333 41.7593 151.487 38.5855 153.519C38.2828 153.713 38.0174 153.223 38.3184 153.03V153.03Z" fill="white"/>
<path d="M40.3952 122.546C41.0373 122.826 41.7387 122.941 42.4365 122.882C43.1342 122.823 43.8064 122.592 44.3926 122.209C44.6927 122.012 44.9578 122.502 44.6597 122.698C44.01 123.118 43.2673 123.373 42.4966 123.439C41.7259 123.506 40.9505 123.383 40.2383 123.081C40.1688 123.058 40.1106 123.01 40.0755 122.945C40.0404 122.881 40.0311 122.806 40.0495 122.735C40.0706 122.665 40.1188 122.605 40.1835 122.57C40.2483 122.534 40.3243 122.526 40.3952 122.546V122.546Z" fill="white"/>
<path d="M129.737 44.5368C139.485 44.5368 147.388 36.634 147.388 26.8854C147.388 17.1368 139.485 9.23398 129.737 9.23398C119.988 9.23398 112.085 17.1368 112.085 26.8854C112.085 36.634 119.988 44.5368 129.737 44.5368Z" fill="#FF6584"/>
<path d="M183.782 25.9643C182.191 24.284 180.512 22.6901 178.751 21.1893C175.312 18.2732 171.506 15.7936 167.262 14.2317C165.664 13.6417 164.014 13.2071 162.333 12.934C162.131 12.9013 161.932 12.8686 161.73 12.8419C161.715 12.8404 161.7 12.8404 161.685 12.8419C161.654 12.8331 161.622 12.8272 161.59 12.8241C161.178 12.7706 160.765 12.7291 160.349 12.6994C158.11 12.5505 155.862 12.7529 153.685 13.2992C152.423 13.6178 151.191 14.0471 150.003 14.5821C148.814 15.1644 147.66 15.8179 146.55 16.539C145.953 16.9013 145.339 17.2333 144.709 17.5338C142.869 18.4053 140.922 19.0285 138.918 19.3868C137.565 19.6295 136.194 19.7646 134.82 19.7906C133.626 19.8144 132.501 19.8559 131.369 20.2865C130.162 20.7402 129.077 21.4701 128.202 22.4178C127.327 23.3655 126.686 24.5047 126.33 25.7445C126.302 25.8546 126.31 25.9708 126.353 26.0761C126.395 26.1813 126.471 26.2701 126.568 26.3295C126.874 26.5493 127.17 26.7987 127.494 26.9947C127.78 27.125 128.085 27.2083 128.397 27.2411C128.908 27.3481 129.419 27.452 129.932 27.553C131.818 27.9271 133.711 28.2587 135.613 28.5477C139.438 29.1268 143.284 29.5346 147.152 29.7712C147.176 29.7746 147.2 29.7766 147.224 29.7771C151.594 30.0409 155.975 30.0835 160.349 29.9048C161.011 29.8781 161.67 29.8454 162.333 29.8068C165.091 29.6524 167.843 29.4089 170.588 29.0763C173.127 28.7675 175.656 28.3844 178.175 27.9271C179.975 27.6005 181.767 27.2362 183.553 26.8343C183.64 26.8087 183.718 26.7611 183.781 26.6961C183.844 26.6312 183.889 26.5512 183.912 26.4637C183.935 26.3762 183.935 26.2843 183.912 26.1968C183.89 26.1093 183.844 26.0292 183.782 25.9643V25.9643Z" fill="#E6E6E6"/>
<path d="M147.093 49.5007C144.538 46.7671 141.722 44.2887 138.686 42.1007C137.68 41.3939 136.643 40.7287 135.577 40.12C134.27 39.3655 132.913 38.7018 131.515 38.1334C131.203 38.0057 130.888 37.8839 130.574 37.7681C128.785 37.1058 126.93 36.6398 125.041 36.3784C125.026 36.3754 125.012 36.3784 124.997 36.3754C124.967 36.3695 124.934 36.3635 124.905 36.3576C123.989 36.2389 123.066 36.1823 122.143 36.1883C121.481 36.1883 120.816 36.224 120.156 36.2893C119.091 36.3942 118.035 36.5768 116.997 36.8357C116.483 36.9634 115.972 37.1119 115.471 37.2811C114.739 37.522 114.02 37.8015 113.318 38.1185C113.306 38.1245 113.297 38.1274 113.285 38.1334C112.106 38.7101 110.964 39.3587 109.864 40.0754C109.84 40.0903 109.814 40.1051 109.79 40.12C108.541 40.8671 107.22 41.4859 105.846 41.967C104.667 42.3793 103.458 42.699 102.229 42.9232C100.876 43.1666 99.506 43.3007 98.1315 43.3241C96.9378 43.3479 95.8123 43.3894 94.6839 43.823C93.4761 44.2766 92.3911 45.0064 91.5156 45.9541C90.6401 46.9017 89.9983 48.0411 89.6416 49.281C89.6141 49.3911 89.6223 49.5071 89.665 49.6122C89.7077 49.7174 89.7827 49.8062 89.8792 49.866C90.1851 50.0857 90.485 50.3322 90.8057 50.5282C91.091 50.6595 91.396 50.7428 91.7084 50.7746C92.2192 50.8816 92.7299 50.9884 93.2437 51.0894C95.1293 51.4636 97.0239 51.7942 98.9273 52.0812C101.538 52.4762 104.159 52.7919 106.791 53.0285C108.038 53.1443 109.286 53.2394 110.535 53.3136C113.739 53.5066 116.946 53.5818 120.156 53.5393C120.819 53.5304 121.481 53.5155 122.143 53.4947C126.075 53.3789 129.995 53.0839 133.902 52.6098C138.258 52.0828 142.585 51.3345 146.864 50.3678C146.951 50.3424 147.029 50.2951 147.092 50.2305C147.155 50.1658 147.2 50.086 147.223 49.9988C147.246 49.9116 147.247 49.8199 147.224 49.7326C147.201 49.6454 147.156 49.5655 147.093 49.5007V49.5007Z" fill="#E6E6E6"/>
<path d="M103.095 2.12819L118.646 217.021L87.5449 219.781V4.86222C91.2509 1.96739 96.5707 1.51449 103.095 2.12819Z" fill="#CCCCCC"/>
<path d="M179.855 2.12819L164.305 217.021L195.406 219.781V4.86222C191.7 1.96739 186.38 1.51449 179.855 2.12819Z" fill="#CCCCCC"/>
<path d="M196.137 4.95601C195.172 2.58981 193.12 0.956268 190.748 0.956268H91.8715C88.5724 0.956268 85.8909 4.12171 85.8909 8.01629V221.602C85.8621 223.578 86.6009 225.488 87.9517 226.93C88.6585 227.672 89.5535 228.209 90.5412 228.483C90.9744 228.603 91.422 228.663 91.8715 228.662H190.748C191.197 228.663 191.645 228.603 192.078 228.483C194.739 227.768 196.728 224.956 196.728 221.602V8.0163C196.731 6.96759 196.53 5.9283 196.137 4.95601V4.95601ZM194.745 221.602C194.745 224.203 192.951 226.32 190.748 226.32H91.8715C90.0452 226.32 88.4981 224.865 88.026 222.885C87.9251 222.464 87.8742 222.034 87.8745 221.602V8.0163C87.8745 5.41524 89.6681 3.30144 91.8715 3.30144H190.748C191.153 3.30112 191.556 3.37355 191.936 3.51528C193.56 4.11121 194.745 5.9025 194.745 8.01629V221.602Z" fill="#CCCCCC"/>
<path d="M195.737 65.8788H86.8832V67.864H195.737V65.8788Z" fill="#CCCCCC"/>
<path d="M195.737 24.8994H86.8832V26.8845H195.737V24.8994Z" fill="#CCCCCC"/>
<path d="M195.737 98.965H86.8832V100.95H195.737V98.965Z" fill="#CCCCCC"/>
<path d="M122.207 1.84714H120.222V127.088H122.207V1.84714Z" fill="#CCCCCC"/>
<path d="M162.398 1.84714H160.413V127.088H162.398V1.84714Z" fill="#CCCCCC"/>
<path d="M208.143 216.255H77.7841C75.4159 216.258 73.1456 217.2 71.4711 218.874C69.7965 220.549 68.8545 222.819 68.8518 225.187C68.8506 226.326 69.0694 227.454 69.4961 228.51C70.1593 230.166 71.3031 231.586 72.7802 232.586C74.2574 233.587 76.0001 234.122 77.7841 234.123H208.143C209.703 234.122 211.235 233.714 212.587 232.937C213.94 232.161 215.065 231.044 215.852 229.698C216.076 229.318 216.271 228.921 216.434 228.51C216.861 227.454 217.08 226.326 217.079 225.187C217.075 222.819 216.133 220.549 214.457 218.874C212.782 217.2 210.512 216.258 208.143 216.255Z" fill="#CCCCCC"/>
<path d="M195.737 122.456H87.5449V129.073H195.737V122.456Z" fill="#CCCCCC"/>
<path d="M140.648 120.471H142.633C143.599 120.471 144.524 120.854 145.207 121.537C145.889 122.219 146.273 123.145 146.273 124.11V124.11H137.009C137.009 123.632 137.103 123.159 137.286 122.718C137.469 122.276 137.737 121.875 138.075 121.537C138.413 121.199 138.814 120.931 139.255 120.748C139.697 120.565 140.17 120.471 140.648 120.471V120.471Z" fill="#CCCCCC"/>
<path d="M143.549 141.118C154.873 141.118 164.053 131.938 164.053 120.614C164.053 109.29 154.873 100.11 143.549 100.11C132.225 100.11 123.045 109.29 123.045 120.614C123.045 131.938 132.225 141.118 143.549 141.118Z" fill="#9E616A"/>
<path d="M120.677 100.889C120.832 98.5349 122.389 96.1254 127.336 94.8664C127.336 94.8664 135.826 84.0096 147.364 89.703C147.364 89.703 152.957 88.7407 157.104 94.5439C157.104 94.5439 161.216 92.1187 162.951 96.4174C162.951 96.4174 167.774 105.186 165.998 114.129C164.223 123.073 163.314 124.189 163.314 124.189C163.314 124.189 165.577 105.689 152.542 106.972C139.507 108.255 129.012 103.671 126.06 113.708C123.609 122.042 123.918 126.37 123.918 126.37C123.918 126.37 115.721 118.056 118.508 111.509C119.934 108.161 120.438 104.521 120.677 100.889Z" fill="#2F2E41"/>
<path d="M87.7913 232.668H201.204C200.446 224.017 199.951 190.947 199.951 188.771C199.951 179.171 192.096 168.695 192.096 168.695L189.284 167.141L165.803 159.815L159.727 151.922C159.091 151.093 158.271 150.423 157.332 149.964C156.393 149.506 155.36 149.272 154.315 149.28L135.12 149.424C133.431 149.437 131.808 150.08 130.568 151.227L118.682 162.254L101.249 170.579L101.219 170.55L101.037 170.685L98.4495 172.548L96.7853 173.751C96.7853 173.751 92.4196 178.989 88.9303 194.699C88.4053 197.062 88.0368 227.65 87.7913 232.668Z" fill="#A4161A"/>
<path d="M227.454 228.51C227.181 228.76 226.905 229.006 226.629 229.253C225.583 230.182 224.523 231.096 223.448 231.994C221.824 233.348 220.166 234.661 218.474 235.934H65.7991C62.69 233.6 59.6957 231.125 56.8163 228.51H227.454Z" fill="#CCCCCC"/>
<path d="M171.49 230.292H115.366L116.554 224.65H170.302L171.49 230.292Z" fill="#2F2E41"/>
<path d="M222.266 205.942H207.662C207.333 205.941 207.007 206.012 206.708 206.151C206.409 206.289 206.143 206.492 205.931 206.744C205.727 206.704 205.521 206.684 205.313 206.684C204.858 206.684 204.407 206.773 203.987 206.947C203.566 207.121 203.184 207.376 202.862 207.698C202.54 208.019 202.284 208.401 202.11 208.822C201.936 209.242 201.846 209.693 201.846 210.148C201.846 210.603 201.936 211.054 202.11 211.475C202.284 211.895 202.54 212.277 202.862 212.599C203.184 212.921 203.566 213.176 203.987 213.349C204.407 213.523 204.858 213.613 205.313 213.612C205.836 213.612 206.352 213.492 206.822 213.262L207.065 216.255L208.033 228.086C208.079 228.233 208.141 228.376 208.218 228.51C208.413 228.87 208.702 229.169 209.054 229.378C209.405 229.587 209.807 229.698 210.216 229.698H219.713C220.122 229.698 220.524 229.587 220.876 229.378C221.228 229.169 221.517 228.869 221.714 228.51C221.788 228.375 221.849 228.233 221.895 228.086L224.449 208.897C224.554 208.555 224.577 208.194 224.517 207.841C224.457 207.489 224.315 207.156 224.103 206.869C223.891 206.581 223.614 206.348 223.295 206.187C222.976 206.026 222.624 205.942 222.266 205.942ZM205.313 212.623C204.657 212.623 204.029 212.361 203.565 211.897C203.101 211.433 202.841 210.804 202.841 210.148C202.841 209.492 203.101 208.863 203.565 208.399C204.029 207.935 204.657 207.674 205.313 207.673C205.358 207.673 205.399 207.685 205.444 207.688C205.346 208.087 205.359 208.504 205.48 208.897L206.525 212.294C206.157 212.508 205.739 212.621 205.313 212.623V212.623Z" fill="#3F3D56"/>
<path d="M189.281 143.157H96.8336C96.0393 143.158 95.278 143.475 94.7163 144.036C94.1547 144.598 93.8386 145.359 93.8373 146.153V208.537C93.8381 209.332 94.154 210.093 94.7158 210.655C95.2775 211.217 96.0392 211.533 96.8336 211.534H189.281C190.075 211.533 190.837 211.217 191.399 210.655C191.96 210.093 192.276 209.332 192.277 208.537V146.153C192.276 145.359 191.96 144.598 191.398 144.036C190.837 143.475 190.075 143.158 189.281 143.157Z" fill="#3F3D56"/>
<path d="M153.468 193.143H131.841C131.535 193.144 131.242 193.266 131.026 193.482C130.81 193.699 130.689 193.992 130.689 194.298V228.463H154.624V194.298C154.624 194.147 154.594 193.996 154.536 193.856C154.478 193.716 154.393 193.589 154.285 193.481C154.178 193.374 154.051 193.289 153.911 193.231C153.77 193.173 153.62 193.143 153.468 193.143V193.143ZM142.728 212.555C142.051 212.552 141.404 212.282 140.925 211.804C140.447 211.325 140.177 210.678 140.174 210.001V206.061C140.175 205.384 140.444 204.735 140.923 204.257C141.402 203.778 142.051 203.51 142.728 203.51C143.404 203.51 144.054 203.778 144.532 204.257C145.011 204.735 145.281 205.384 145.281 206.061V210.001C145.278 210.678 145.008 211.325 144.53 211.804C144.052 212.282 143.404 212.552 142.728 212.555V212.555Z" fill="#2F2E41"/>
<path d="M130.615 227.37V230.666C130.615 230.837 130.683 231.001 130.804 231.121C130.925 231.242 131.089 231.31 131.259 231.311H154.053C154.224 231.31 154.387 231.242 154.508 231.121C154.629 231 154.697 230.837 154.698 230.666V227.37H130.615Z" fill="#3F3D56"/>
<path d="M187.315 207.885C188.121 207.885 188.774 207.232 188.774 206.426C188.774 205.62 188.121 204.966 187.315 204.966C186.509 204.966 185.856 205.62 185.856 206.426C185.856 207.232 186.509 207.885 187.315 207.885Z" fill="#2F2E41"/>
<path d="M108.504 204.309C108.437 204.309 108.37 204.322 108.308 204.348C108.246 204.373 108.19 204.411 108.143 204.458C108.095 204.506 108.058 204.562 108.032 204.624C108.006 204.686 107.993 204.752 107.993 204.819V207.447C107.993 207.583 108.047 207.712 108.143 207.808C108.239 207.903 108.369 207.957 108.504 207.957C108.639 207.957 108.769 207.903 108.864 207.808C108.96 207.712 109.014 207.583 109.015 207.447V204.819C109.015 204.752 109.001 204.686 108.976 204.624C108.95 204.562 108.912 204.506 108.865 204.458C108.818 204.411 108.761 204.373 108.699 204.348C108.637 204.322 108.571 204.309 108.504 204.309V204.309Z" fill="#2F2E41"/>
<path d="M111.277 204.309C111.21 204.309 111.144 204.322 111.082 204.348C111.02 204.373 110.964 204.411 110.916 204.458C110.869 204.506 110.831 204.562 110.805 204.624C110.78 204.686 110.767 204.752 110.767 204.819V207.448C110.767 207.583 110.82 207.713 110.916 207.809C111.012 207.904 111.142 207.958 111.277 207.958C111.413 207.958 111.543 207.904 111.639 207.809C111.734 207.713 111.788 207.583 111.788 207.448V204.819C111.788 204.752 111.775 204.686 111.749 204.624C111.724 204.562 111.686 204.506 111.639 204.458C111.591 204.411 111.535 204.373 111.473 204.348C111.411 204.322 111.344 204.309 111.277 204.309V204.309Z" fill="#2F2E41"/>
<path d="M114.051 204.309C113.984 204.309 113.917 204.322 113.855 204.348C113.793 204.373 113.737 204.411 113.69 204.458C113.642 204.506 113.605 204.562 113.579 204.624C113.553 204.686 113.54 204.752 113.54 204.819V207.447C113.541 207.583 113.594 207.712 113.69 207.808C113.786 207.903 113.916 207.957 114.051 207.957C114.186 207.957 114.316 207.903 114.412 207.808C114.507 207.712 114.561 207.583 114.562 207.447V204.819C114.562 204.752 114.548 204.686 114.523 204.624C114.497 204.562 114.46 204.506 114.412 204.458C114.365 204.411 114.308 204.373 114.246 204.348C114.184 204.322 114.118 204.309 114.051 204.309Z" fill="#2F2E41"/>
<path d="M116.824 204.309C116.757 204.309 116.691 204.322 116.629 204.348C116.567 204.373 116.511 204.411 116.463 204.458C116.416 204.506 116.378 204.562 116.353 204.624C116.327 204.686 116.314 204.752 116.314 204.819V207.447C116.314 207.583 116.368 207.712 116.464 207.808C116.56 207.903 116.689 207.957 116.824 207.957C116.96 207.957 117.089 207.903 117.185 207.808C117.281 207.712 117.335 207.583 117.335 207.447V204.819C117.335 204.752 117.322 204.686 117.296 204.624C117.271 204.562 117.233 204.506 117.186 204.458C117.138 204.411 117.082 204.373 117.02 204.348C116.958 204.322 116.892 204.309 116.824 204.309V204.309Z" fill="#2F2E41"/>
<path d="M119.037 228.807C123.301 228.807 126.758 225.351 126.758 221.086C126.758 216.822 123.301 213.366 119.037 213.366C114.773 213.366 111.317 216.822 111.317 221.086C111.317 225.351 114.773 228.807 119.037 228.807Z" fill="#9E616A"/>
<path d="M172.975 230.292C177.239 230.292 180.696 226.835 180.696 222.571C180.696 218.307 177.239 214.85 172.975 214.85C168.711 214.85 165.254 218.307 165.254 222.571C165.254 226.835 168.711 230.292 172.975 230.292Z" fill="#9E616A"/>
<path d="M252.667 129.379C251.904 128.117 251 126.77 249.585 126.358C247.945 125.881 246.261 126.829 244.832 127.764C240.559 130.562 236.445 133.593 232.507 136.845L232.511 136.894C235.577 136.683 238.121 144.834 241.187 144.623C243.402 144.47 246.214 135.933 248.172 134.885C248.915 134.488 249.639 133.957 250.48 133.92C251.526 133.874 252.438 134.604 253.154 135.367C257.393 139.881 258.619 146.783 263.375 150.748C260.376 143.353 256.796 136.208 252.667 129.379V129.379Z" fill="#3F3D56"/>
<path d="M260.826 140.342C263.062 144.381 265.433 148.339 267.941 152.217V152.22C267.926 152.357 267.905 152.493 267.884 152.63C267.581 152.167 267.281 151.702 266.984 151.234C264.734 147.704 262.595 144.105 260.567 140.44C259.605 138.697 258.667 136.94 257.752 135.169C257.045 133.797 256.354 132.417 255.677 131.03C255.483 130.632 255.296 130.234 255.109 129.833C254.67 128.895 254.236 127.95 253.773 127.024C253.244 125.967 252.6 124.862 251.629 124.152C251.187 123.816 250.659 123.612 250.106 123.564C249.326 123.569 248.563 123.788 247.899 124.197C242.876 126.837 238.187 130.07 233.934 133.827C229.675 137.569 225.868 141.795 222.59 146.421C222.489 146.563 222.252 146.427 222.352 146.281C222.753 145.717 223.157 145.162 223.573 144.609C228.726 137.758 235.043 131.865 242.236 127.202C243.445 126.418 244.677 125.671 245.933 124.96C246.566 124.601 247.201 124.247 247.849 123.915C248.468 123.551 249.164 123.336 249.88 123.285C252.345 123.247 253.622 126.038 254.498 127.915C254.771 128.506 255.049 129.096 255.332 129.684C256.398 131.912 257.506 134.121 258.655 136.312C259.362 137.664 260.085 139.007 260.826 140.342Z" fill="#3F3D56"/>
<path d="M233.691 132.448C233.548 132.289 233.406 132.129 233.262 131.97C232.125 130.713 230.906 129.471 229.346 128.75C228.602 128.396 227.789 128.208 226.965 128.199C226.115 128.222 225.277 128.405 224.494 128.738C224.122 128.886 223.758 129.055 223.4 129.235C222.99 129.441 222.588 129.66 222.188 129.882C221.436 130.298 220.694 130.732 219.963 131.184C218.506 132.084 217.095 133.053 215.73 134.091C215.022 134.629 214.329 135.185 213.651 135.758C213.02 136.29 212.401 136.837 211.796 137.398C211.666 137.518 211.473 137.325 211.603 137.205C211.762 137.056 211.924 136.909 212.085 136.763C212.541 136.351 213.004 135.946 213.475 135.55C214.333 134.826 215.213 134.13 216.116 133.462C217.519 132.422 218.971 131.453 220.471 130.554C221.221 130.105 221.981 129.676 222.751 129.265C222.984 129.141 223.219 129.019 223.457 128.904C223.997 128.632 224.558 128.404 225.135 128.221C225.952 127.957 226.817 127.872 227.67 127.972C228.493 128.092 229.286 128.367 230.008 128.781C231.54 129.638 232.728 130.962 233.885 132.254C234.001 132.385 233.809 132.58 233.691 132.448Z" fill="#3F3D56"/>
<path d="M222.48 138.495C222.09 138.514 221.706 138.404 221.385 138.181C220.537 137.539 220.56 135.996 221.453 133.464C221.696 132.779 222.078 132.15 222.573 131.617C223.069 131.084 223.669 130.659 224.335 130.367C224.96 130.087 225.636 129.941 226.32 129.937C227.004 129.933 227.681 130.071 228.309 130.343C228.419 130.391 228.527 130.442 228.633 130.496C229.36 130.903 230.041 131.387 230.665 131.938C231.196 132.398 231.762 132.816 232.358 133.188L232.557 133.305L232.368 133.437C227.558 136.824 224.297 138.495 222.48 138.495Z" fill="#3F3D56"/>
<path d="M240.977 118.341C239.396 118.341 237.863 117.792 236.641 116.787C235.419 115.783 234.583 114.386 234.277 112.834C232.954 113.102 231.74 113.755 230.789 114.712C229.837 115.669 229.191 116.886 228.93 118.21C228.67 119.534 228.808 120.906 229.326 122.152C229.844 123.398 230.72 124.462 231.843 125.211C232.966 125.959 234.285 126.359 235.634 126.358C236.984 126.358 238.303 125.958 239.425 125.208C240.547 124.459 241.422 123.394 241.94 122.148C242.457 120.901 242.594 119.53 242.333 118.206C241.887 118.296 241.433 118.341 240.977 118.341V118.341Z" fill="#3F3D56"/>
<path opacity="0.74" d="M58.1503 129.328C63.7793 129.328 68.3425 124.765 68.3425 119.136C68.3425 113.507 63.7793 108.944 58.1503 108.944C52.5213 108.944 47.9581 113.507 47.9581 119.136C47.9581 124.765 52.5213 129.328 58.1503 129.328Z" fill="#3F3D56"/>
<path opacity="0.74" d="M68.3425 129.328C73.9715 129.328 78.5347 124.765 78.5347 119.136C78.5347 113.507 73.9715 108.944 68.3425 108.944C62.7135 108.944 58.1503 113.507 58.1503 119.136C58.1503 124.765 62.7135 129.328 68.3425 129.328Z" fill="#A4161A"/>
<path opacity="0.74" d="M63.3326 121.205C68.9616 121.205 73.5248 116.642 73.5248 111.013C73.5248 105.384 68.9616 100.821 63.3326 100.821C57.7036 100.821 53.1404 105.384 53.1404 111.013C53.1404 116.642 57.7036 121.205 63.3326 121.205Z" fill="#FF6584"/>
<path d="M89.984 108.092L63.8043 116.317L63.9823 116.884L90.162 108.659L89.984 108.092Z" fill="#3F3D56"/>
<path d="M90.1506 109.468C90.8066 109.468 91.3384 108.937 91.3384 108.281C91.3384 107.625 90.8066 107.093 90.1506 107.093C89.4946 107.093 88.9628 107.625 88.9628 108.281C88.9628 108.937 89.4946 109.468 90.1506 109.468Z" fill="#3F3D56"/>
<path d="M260.107 161.729C261.847 162.955 263.519 164.205 265.431 165.15C265.396 165.295 265.357 165.444 265.321 165.589C265.087 165.479 264.858 165.363 264.63 165.245C262.69 164.229 261.022 162.848 259.201 161.648C258.299 161.025 257.313 160.531 256.273 160.181C255.189 159.856 254.057 159.723 252.927 159.789C248.214 160.021 244.175 162.833 239.795 164.25C237.651 164.945 235.371 165.316 233.135 164.879C230.899 164.443 228.912 163.255 226.937 162.18C224.989 161.117 222.866 160.048 220.591 160.048C218.739 160.051 216.791 160.793 215.799 162.432C215.768 162.481 215.719 162.516 215.663 162.53C215.607 162.544 215.547 162.535 215.498 162.506C215.448 162.476 215.411 162.429 215.396 162.373C215.381 162.317 215.388 162.257 215.416 162.207C215.637 161.833 215.91 161.492 216.226 161.194C217.521 159.968 219.424 159.484 221.174 159.626C223.436 159.81 225.5 160.879 227.457 161.954C229.533 163.095 231.659 164.321 234.058 164.57C236.428 164.82 238.774 164.199 240.971 163.365C245.227 161.746 249.426 159.05 254.159 159.35C256.392 159.493 258.304 160.461 260.107 161.729Z" fill="#3F3D56"/>
<path d="M73.8465 75.847V76.4498C73.647 76.4104 73.4441 76.3905 73.2407 76.3904H70.1346V83.06C70.134 84.0474 69.7415 84.9942 69.0433 85.6925C68.3451 86.3907 67.3982 86.7832 66.4108 86.7838H61.8199V87.8112C61.8199 88.2231 61.9017 88.6309 62.0604 89.0109H61.425C61.2922 88.6249 61.2249 88.2194 61.226 87.8112V86.7838H58.7019V86.1899H61.226V79.5203C61.2266 78.5329 61.6191 77.586 62.3173 76.8878C63.0155 76.1896 63.9624 75.7971 64.9498 75.7965H69.5407V74.7572H70.1346V75.7965H73.2407C73.4437 75.7967 73.6463 75.8136 73.8465 75.847V75.847Z" fill="#A4161A"/>
<path d="M66.4108 71.0453H58.1199C57.1325 71.0458 56.1856 71.4383 55.4874 72.1366C54.7892 72.8348 54.3967 73.7816 54.3961 74.769V83.06C54.3967 84.0474 54.7892 84.9942 55.4874 85.6925C56.1856 86.3907 57.1325 86.7832 58.1199 86.7838H66.4108C67.3982 86.7832 68.3451 86.3907 69.0433 85.6925C69.7415 84.9942 70.134 84.0474 70.1346 83.06V74.7572C70.131 73.7718 69.7372 72.8279 69.0393 72.1322C68.3414 71.4365 67.3962 71.0457 66.4108 71.0453V71.0453ZM69.5407 83.06C69.5396 83.8897 69.2095 84.6852 68.6227 85.2719C68.036 85.8586 67.2406 86.1887 66.4108 86.1899H58.1199C57.2901 86.1887 56.4947 85.8586 55.908 85.2719C55.3213 84.6852 54.9911 83.8897 54.99 83.06V74.769C54.9911 73.9393 55.3213 73.1438 55.908 72.5571C56.4947 71.9704 57.2901 71.6403 58.1199 71.6392H66.4108C67.2386 71.6401 68.0323 71.9686 68.6187 72.5528C69.2051 73.1369 69.5366 73.9294 69.5407 74.7572V83.06Z" fill="#3F3D56"/>
<path d="M61.226 86.1899V86.7838H61.8199V86.1899H61.226ZM61.226 86.1899V86.7838H61.8199V86.1899H61.226ZM73.8465 75.847C73.6463 75.8136 73.4437 75.7967 73.2407 75.7965H64.9498C63.9624 75.7971 63.0156 76.1896 62.3173 76.8878C61.6191 77.586 61.2266 78.5328 61.226 79.5203V87.8112C61.2249 88.2194 61.2922 88.6249 61.425 89.0109C61.6756 89.7468 62.1503 90.3859 62.7824 90.8385C63.4145 91.2912 64.1724 91.5347 64.9498 91.535H73.2407C74.2282 91.5344 75.175 91.1419 75.8732 90.4437C76.5714 89.7455 76.9639 88.7986 76.9645 87.8112V79.5203C76.9643 78.6379 76.6507 77.7842 76.0796 77.1114C75.5086 76.4387 74.7172 75.9906 73.8465 75.847V75.847ZM76.3706 87.8112C76.3695 88.641 76.0394 89.4364 75.4526 90.0231C74.8659 90.6099 74.0705 90.94 73.2407 90.9411H64.9498C64.1201 90.9399 63.3247 90.6098 62.738 90.0231C62.1512 89.4364 61.8211 88.6409 61.8199 87.8112V79.5203C61.8211 78.6905 62.1512 77.8951 62.7379 77.3084C63.3246 76.7216 64.1201 76.3915 64.9498 76.3904H73.2407C74.0707 76.3907 74.8666 76.7206 75.4535 77.3075C76.0404 77.8944 76.3703 78.6903 76.3706 79.5203V87.8112ZM61.226 86.1898V86.7837H61.8199V86.1898H61.226Z" fill="#3F3D56"/>
<path d="M55.3612 163.602H20.1426C19.8975 163.603 19.6623 163.7 19.4887 163.873C19.3151 164.046 19.2171 164.281 19.2161 164.526V166.614C20.3781 171.064 21.7848 175.447 23.4299 179.742H55.3612C55.4825 179.742 55.6026 179.718 55.7147 179.672C55.8268 179.625 55.9287 179.557 56.0145 179.472C56.1003 179.386 56.1683 179.284 56.2146 179.172C56.261 179.06 56.2848 178.94 56.2847 178.818V164.526C56.2844 164.281 56.187 164.046 56.0139 163.873C55.8408 163.7 55.606 163.603 55.3612 163.602V163.602Z" fill="#A4161A"/>
<path d="M52.0056 184.377H25.3096C25.6273 185.123 25.951 185.862 26.2866 186.598H52.0056C53.4547 186.619 53.4399 184.356 52.0056 184.377Z" fill="#E4E4E4"/>
<path d="M52.0056 189.467H27.6259C27.9822 190.212 28.3484 190.953 28.7246 191.688H52.0056C53.4548 191.709 53.4399 189.449 52.0056 189.467Z" fill="#E4E4E4"/>
<path d="M52.0056 194.56H30.2242C30.6221 195.305 31.0319 196.044 31.4476 196.781H52.0056C53.4548 196.802 53.4399 194.539 52.0056 194.56Z" fill="#E4E4E4"/>
<path d="M234.587 57.6749H234.418C234.945 57.6754 235.464 57.7982 235.935 58.0337H235.165C234.336 58.0347 233.54 58.3647 232.953 58.9514C232.367 59.5382 232.037 60.3337 232.036 61.1635V69.4547C232.037 70.2844 232.367 71.0799 232.953 71.6667C233.54 72.2534 234.336 72.5835 235.165 72.5844H235.656C235.262 72.7392 234.842 72.8189 234.418 72.8195H234.587C235.496 72.8184 236.367 72.4571 237.009 71.8147C237.652 71.1723 238.013 70.3013 238.014 69.3928V61.1016C238.013 60.1931 237.652 59.3221 237.009 58.6797C236.367 58.0373 235.496 57.6759 234.587 57.6749V57.6749Z" fill="#3F3D56"/>
<path opacity="0.21" d="M234.587 57.6749H234.418C234.945 57.6754 235.464 57.7982 235.935 58.0337H235.165C234.336 58.0347 233.54 58.3647 232.953 58.9514C232.367 59.5382 232.037 60.3337 232.036 61.1635V69.4547C232.037 70.2844 232.367 71.0799 232.953 71.6667C233.54 72.2534 234.336 72.5835 235.165 72.5844H235.656C235.262 72.7392 234.842 72.8189 234.418 72.8195H234.587C235.496 72.8184 236.367 72.4571 237.009 71.8147C237.652 71.1723 238.013 70.3013 238.014 69.3928V61.1016C238.013 60.1931 237.652 59.3221 237.009 58.6797C236.367 58.0373 235.496 57.6759 234.587 57.6749V57.6749Z" fill="black"/>
<path d="M212.613 57.6749H212.444C212.97 57.6754 213.49 57.7982 213.961 58.0337H213.191C212.361 58.0347 211.566 58.3647 210.979 58.9514C210.392 59.5382 210.062 60.3337 210.061 61.1635V69.4547C210.062 70.2844 210.392 71.0799 210.979 71.6667C211.566 72.2534 212.361 72.5835 213.191 72.5844H213.682C213.287 72.7392 212.867 72.8189 212.444 72.8195H212.613C213.521 72.8184 214.392 72.4571 215.035 71.8147C215.677 71.1723 216.039 70.3013 216.04 69.3928V61.1016C216.039 60.1931 215.677 59.3221 215.035 58.6797C214.392 58.0373 213.521 57.6759 212.613 57.6749V57.6749Z" fill="#A4161A"/>
<path opacity="0.21" d="M212.613 57.6749H212.444C212.97 57.6754 213.49 57.7982 213.961 58.0337H213.191C212.361 58.0347 211.566 58.3647 210.979 58.9514C210.392 59.5382 210.062 60.3337 210.061 61.1635V69.4547C210.062 70.2844 210.392 71.0799 210.979 71.6667C211.566 72.2534 212.361 72.5835 213.191 72.5844H213.682C213.287 72.7392 212.867 72.8189 212.444 72.8195H212.613C213.521 72.8184 214.392 72.4571 215.035 71.8147C215.677 71.1723 216.039 70.3013 216.04 69.3928V61.1016C216.039 60.1931 215.677 59.3221 215.035 58.6797C214.392 58.0373 213.521 57.6759 212.613 57.6749V57.6749Z" fill="black"/>
<path d="M213.224 72.6102C212.394 72.6093 211.599 72.2792 211.012 71.6925C210.425 71.1058 210.095 70.3102 210.094 69.4805V61.1893C210.095 60.3595 210.425 59.564 211.012 58.9773C211.599 58.3905 212.394 58.0605 213.224 58.0595H213.994C213.523 57.824 213.004 57.7012 212.477 57.7007H204.186C203.277 57.7018 202.406 58.0631 201.764 58.7055C201.121 59.3479 200.76 60.2189 200.759 61.1274V69.4186C200.76 70.3271 201.121 71.1981 201.764 71.8405C202.406 72.4829 203.277 72.8443 204.186 72.8453H212.477C212.901 72.8447 213.32 72.765 213.715 72.6102L213.224 72.6102Z" fill="#A4161A"/>
<path d="M235.198 72.6102C234.369 72.6093 233.573 72.2792 232.986 71.6925C232.4 71.1058 232.07 70.3102 232.069 69.4805V61.1893C232.07 60.3595 232.4 59.564 232.986 58.9773C233.573 58.3905 234.369 58.0605 235.198 58.0595H235.969C235.497 57.824 234.978 57.7012 234.451 57.7007H226.16C225.252 57.7018 224.381 58.0631 223.738 58.7055C223.096 59.3479 222.735 60.2189 222.733 61.1274V69.4186C222.734 70.3271 223.096 71.1981 223.738 71.8405C224.381 72.4829 225.252 72.8443 226.16 72.8453H234.451C234.875 72.8447 235.295 72.765 235.689 72.6102L235.198 72.6102Z" fill="#3F3D56"/>
<path d="M244.989 59.764C248.032 63.9501 250.816 68.3186 253.325 72.8448H248.134C247.225 72.8435 246.355 72.482 245.712 71.8396C245.07 71.1973 244.708 70.3264 244.707 69.418V61.127C244.707 60.6582 244.803 60.1943 244.989 59.764V59.764Z" fill="#FF6584"/>
<path d="M234.581 77.1951L231.677 72.8448L229.554 69.6644C229.43 69.4786 229.256 69.3318 229.052 69.2409C228.848 69.15 228.622 69.1187 228.401 69.1507C228.18 69.1827 227.973 69.2767 227.803 69.4217C227.633 69.5668 227.508 69.757 227.442 69.9703L226.548 72.8448L224.749 78.6205C224.678 78.8506 224.679 79.0969 224.751 79.3266C224.824 79.5562 224.965 79.7583 225.155 79.9058C225.345 80.0532 225.576 80.1391 225.817 80.152C226.057 80.1648 226.296 80.104 226.501 79.9776L227.139 79.5826C227.268 79.5034 227.414 79.4583 227.565 79.4516C227.716 79.4449 227.866 79.4768 228.001 79.5443C228.136 79.6119 228.252 79.7127 228.337 79.8374C228.422 79.9621 228.474 80.1064 228.487 80.2567L229.072 86.6412C229.1 86.9345 229.236 87.207 229.453 87.4057C229.67 87.6044 229.954 87.7151 230.248 87.7162C230.284 87.7162 230.32 87.7132 230.358 87.7102L231.255 87.6301C231.41 87.616 231.56 87.5716 231.698 87.4993C231.835 87.4271 231.957 87.3284 232.056 87.209C232.156 87.0895 232.23 86.9517 232.276 86.8033C232.322 86.6549 232.339 86.4989 232.324 86.3443L231.721 79.7519C231.707 79.597 231.734 79.4412 231.799 79.2999C231.864 79.1587 231.965 79.0371 232.092 78.9474C232.219 78.8577 232.368 78.803 232.523 78.7889C232.677 78.7748 232.833 78.8017 232.974 78.867L233.105 78.9264C233.339 79.0341 233.602 79.0624 233.853 79.007C234.105 78.9517 234.332 78.8156 234.499 78.6196C234.666 78.4236 234.764 78.1784 234.779 77.9212C234.794 77.6641 234.724 77.4091 234.581 77.1951V77.1951Z" fill="#CCCCCC"/>
</g>
<defs>
<clipPath id="clip0_166_459">
<rect width="268" height="260.462" fill="white" transform="translate(0 0.956268)"/>
</clipPath>
</defs>
</svg>
