<svg width="343" height="382" viewBox="0 0 343 382" fill="none" xmlns="http://www.w3.org/2000/svg">
<rect width="342.222" height="382" fill="white"/>
<path d="M54.9458 176.111L70.5458 141.111H78.5458L94.1958 176.111H85.6958L72.8958 145.211H76.0958L63.2458 176.111H54.9458ZM62.7458 168.611L64.8958 162.461H82.8958L85.0958 168.611H62.7458ZM97.8271 176.111V141.111H112.977C116.11 141.111 118.81 141.628 121.077 142.661C123.344 143.661 125.094 145.111 126.327 147.011C127.56 148.911 128.177 151.178 128.177 153.811C128.177 156.411 127.56 158.661 126.327 160.561C125.094 162.428 123.344 163.861 121.077 164.861C118.81 165.861 116.11 166.361 112.977 166.361H102.327L105.927 162.811V176.111H97.8271ZM120.077 176.111L111.327 163.411H119.977L128.827 176.111H120.077ZM105.927 163.711L102.327 159.911H112.527C115.027 159.911 116.894 159.378 118.127 158.311C119.36 157.211 119.977 155.711 119.977 153.811C119.977 151.878 119.36 150.378 118.127 149.311C116.894 148.244 115.027 147.711 112.527 147.711H102.327L105.927 143.861V163.711ZM129.995 176.111L145.595 141.111H153.595L169.245 176.111H160.745L147.945 145.211H151.145L138.295 176.111H129.995ZM137.795 168.611L139.945 162.461H157.945L160.145 168.611H137.795ZM172.876 176.111V141.111H179.576L200.226 166.311H196.976V141.111H204.976V176.111H198.326L177.626 150.911H180.876V176.111H172.876ZM213.257 176.111V141.111H229.157C232.957 141.111 236.307 141.844 239.207 143.311C242.107 144.744 244.373 146.761 246.007 149.361C247.64 151.961 248.457 155.044 248.457 158.611C248.457 162.144 247.64 165.228 246.007 167.861C244.373 170.461 242.107 172.494 239.207 173.961C236.307 175.394 232.957 176.111 229.157 176.111H213.257ZM221.357 169.461H228.757C231.09 169.461 233.107 169.028 234.807 168.161C236.54 167.261 237.873 165.994 238.807 164.361C239.773 162.728 240.257 160.811 240.257 158.611C240.257 156.378 239.773 154.461 238.807 152.861C237.873 151.228 236.54 149.978 234.807 149.111C233.107 148.211 231.09 147.761 228.757 147.761H221.357V169.461ZM249.477 176.111L265.077 141.111H273.077L288.727 176.111H280.227L267.427 145.211H270.627L257.777 176.111H249.477ZM257.277 168.611L259.427 162.461H277.427L279.627 168.611H257.277ZM119.823 226.111V197.711H108.623V191.111H139.123V197.711H127.923V226.111H119.823ZM150.931 205.211H167.781V211.511H150.931V205.211ZM151.531 219.611H170.581V226.111H143.481V191.111H169.931V197.611H151.531V219.611ZM188.526 226.711C185.726 226.711 183.043 226.344 180.476 225.611C177.91 224.844 175.843 223.861 174.276 222.661L177.026 216.561C178.526 217.628 180.293 218.511 182.326 219.211C184.393 219.878 186.476 220.211 188.576 220.211C190.176 220.211 191.46 220.061 192.426 219.761C193.426 219.428 194.16 218.978 194.626 218.411C195.093 217.844 195.326 217.194 195.326 216.461C195.326 215.528 194.96 214.794 194.226 214.261C193.493 213.694 192.526 213.244 191.326 212.911C190.126 212.544 188.793 212.211 187.326 211.911C185.893 211.578 184.443 211.178 182.976 210.711C181.543 210.244 180.226 209.644 179.026 208.911C177.826 208.178 176.843 207.211 176.076 206.011C175.343 204.811 174.976 203.278 174.976 201.411C174.976 199.411 175.51 197.594 176.576 195.961C177.676 194.294 179.31 192.978 181.476 192.011C183.676 191.011 186.426 190.511 189.726 190.511C191.926 190.511 194.093 190.778 196.226 191.311C198.36 191.811 200.243 192.578 201.876 193.611L199.376 199.761C197.743 198.828 196.11 198.144 194.476 197.711C192.843 197.244 191.243 197.011 189.676 197.011C188.11 197.011 186.826 197.194 185.826 197.561C184.826 197.928 184.11 198.411 183.676 199.011C183.243 199.578 183.026 200.244 183.026 201.011C183.026 201.911 183.393 202.644 184.126 203.211C184.86 203.744 185.826 204.178 187.026 204.511C188.226 204.844 189.543 205.178 190.976 205.511C192.443 205.844 193.893 206.228 195.326 206.661C196.793 207.094 198.126 207.678 199.326 208.411C200.526 209.144 201.493 210.111 202.226 211.311C202.993 212.511 203.376 214.028 203.376 215.861C203.376 217.828 202.826 219.628 201.726 221.261C200.626 222.894 198.976 224.211 196.776 225.211C194.61 226.211 191.86 226.711 188.526 226.711ZM215.673 226.111V197.711H204.473V191.111H234.973V197.711H223.773V226.111H215.673Z" fill="#173DC2"/>
</svg>
