<svg width="343" height="382" viewBox="0 0 343 382" fill="none" xmlns="http://www.w3.org/2000/svg">
<rect width="342.222" height="382" fill="white"/>
<path d="M37.0747 201.111L52.6747 166.111H60.6748L76.3248 201.111H67.8248L55.0248 170.211H58.2248L45.3748 201.111H37.0747ZM44.8747 193.611L47.0248 187.461H65.0248L67.2248 193.611H44.8747ZM88.5517 201.111L73.4517 166.111H82.2017L95.4017 197.111H90.2517L103.652 166.111H111.702L96.5517 201.111H88.5517ZM114.624 201.111V166.111H122.724V201.111H114.624ZM126.43 201.111L142.03 166.111H150.03L165.68 201.111H157.18L144.38 170.211H147.58L134.73 201.111H126.43ZM134.23 193.611L136.38 187.461H154.38L156.58 193.611H134.23Z" fill="#147CF8"/>
<path d="M190.722 201.111V172.711H179.522V166.111H210.022V172.711H198.822V201.111H190.722ZM221.83 180.211H238.68V186.511H221.83V180.211ZM222.43 194.611H241.48V201.111H214.38V166.111H240.83V172.611H222.43V194.611ZM259.425 201.711C256.625 201.711 253.941 201.344 251.375 200.611C248.808 199.844 246.741 198.861 245.175 197.661L247.925 191.561C249.425 192.628 251.191 193.511 253.225 194.211C255.291 194.878 257.375 195.211 259.475 195.211C261.075 195.211 262.358 195.061 263.325 194.761C264.325 194.428 265.058 193.978 265.525 193.411C265.991 192.844 266.225 192.194 266.225 191.461C266.225 190.528 265.858 189.794 265.125 189.261C264.391 188.694 263.425 188.244 262.225 187.911C261.025 187.544 259.691 187.211 258.225 186.911C256.791 186.578 255.341 186.178 253.875 185.711C252.441 185.244 251.125 184.644 249.925 183.911C248.725 183.178 247.741 182.211 246.975 181.011C246.241 179.811 245.875 178.278 245.875 176.411C245.875 174.411 246.408 172.594 247.475 170.961C248.575 169.294 250.208 167.978 252.375 167.011C254.575 166.011 257.325 165.511 260.625 165.511C262.825 165.511 264.991 165.778 267.125 166.311C269.258 166.811 271.141 167.578 272.775 168.611L270.275 174.761C268.641 173.828 267.008 173.144 265.375 172.711C263.741 172.244 262.141 172.011 260.575 172.011C259.008 172.011 257.725 172.194 256.725 172.561C255.725 172.928 255.008 173.411 254.575 174.011C254.141 174.578 253.925 175.244 253.925 176.011C253.925 176.911 254.291 177.644 255.025 178.211C255.758 178.744 256.725 179.178 257.925 179.511C259.125 179.844 260.441 180.178 261.875 180.511C263.341 180.844 264.791 181.228 266.225 181.661C267.691 182.094 269.025 182.678 270.225 183.411C271.425 184.144 272.391 185.111 273.125 186.311C273.891 187.511 274.275 189.028 274.275 190.861C274.275 192.828 273.725 194.628 272.625 196.261C271.525 197.894 269.875 199.211 267.675 200.211C265.508 201.211 262.758 201.711 259.425 201.711ZM286.571 201.111V172.711H275.371V166.111H305.871V172.711H294.671V201.111H286.571Z" fill="#FFD067"/>
</svg>
