<svg width="343" height="382" viewBox="0 0 343 382" fill="none" xmlns="http://www.w3.org/2000/svg">
<rect width="342.222" height="382" fill="#006A86"/>
<path d="M114.146 174.663C111.662 174.663 109.347 174.264 107.2 173.467C105.084 172.639 103.244 171.474 101.68 169.971C100.116 168.468 98.8896 166.705 98.0003 164.681C97.1416 162.657 96.7123 160.434 96.7123 158.011C96.7123 155.588 97.1416 153.365 98.0003 151.341C98.8896 149.317 100.116 147.554 101.68 146.051C103.275 144.548 105.13 143.398 107.246 142.601C109.362 141.773 111.678 141.359 114.192 141.359C116.983 141.359 119.498 141.85 121.736 142.831C124.006 143.782 125.907 145.192 127.44 147.063L122.656 151.479C121.552 150.222 120.326 149.286 118.976 148.673C117.627 148.029 116.155 147.707 114.56 147.707C113.058 147.707 111.678 147.952 110.42 148.443C109.163 148.934 108.074 149.639 107.154 150.559C106.234 151.479 105.514 152.568 104.992 153.825C104.502 155.082 104.256 156.478 104.256 158.011C104.256 159.544 104.502 160.94 104.992 162.197C105.514 163.454 106.234 164.543 107.154 165.463C108.074 166.383 109.163 167.088 110.42 167.579C111.678 168.07 113.058 168.315 114.56 168.315C116.155 168.315 117.627 168.008 118.976 167.395C120.326 166.751 121.552 165.785 122.656 164.497L127.44 168.913C125.907 170.784 124.006 172.21 121.736 173.191C119.498 174.172 116.968 174.663 114.146 174.663ZM154.553 141.911H162.005V174.111H154.553V141.911ZM139.925 174.111H132.473V141.911H139.925V174.111ZM155.105 160.909H139.373V154.607H155.105V160.909ZM169.623 174.111V141.911H177.075V174.111H169.623ZM192.31 174.111L181.776 141.911H189.504L198.658 170.431H194.794L204.362 141.911H211.262L220.462 170.431H216.736L226.12 141.911H233.25L222.716 174.111H214.712L206.57 149.087H208.686L200.314 174.111H192.31ZM237.41 174.111V141.911H244.862V174.111H237.41ZM47.8754 224.111L62.2274 191.911H69.5874L83.9854 224.111H76.1654L64.3894 195.683H67.3334L55.5114 224.111H47.8754ZM55.0514 217.211L57.0294 211.553H73.5894L75.6134 217.211H55.0514ZM102.287 224.663C99.8029 224.663 97.4876 224.264 95.3409 223.467C93.2249 222.639 91.3849 221.474 89.8209 219.971C88.2569 218.468 87.0303 216.705 86.1409 214.681C85.2823 212.657 84.8529 210.434 84.8529 208.011C84.8529 205.588 85.2823 203.365 86.1409 201.341C87.0303 199.317 88.2569 197.554 89.8209 196.051C91.4156 194.548 93.2709 193.398 95.3869 192.601C97.5029 191.773 99.8183 191.359 102.333 191.359C105.124 191.359 107.638 191.85 109.877 192.831C112.146 193.782 114.048 195.192 115.581 197.063L110.797 201.479C109.693 200.222 108.466 199.286 107.117 198.673C105.768 198.029 104.296 197.707 102.701 197.707C101.198 197.707 99.8183 197.952 98.5609 198.443C97.3036 198.934 96.2149 199.639 95.2949 200.559C94.3749 201.479 93.6543 202.568 93.1329 203.825C92.6423 205.082 92.3969 206.478 92.3969 208.011C92.3969 209.544 92.6423 210.94 93.1329 212.197C93.6543 213.454 94.3749 214.543 95.2949 215.463C96.2149 216.383 97.3036 217.088 98.5609 217.579C99.8183 218.07 101.198 218.315 102.701 218.315C104.296 218.315 105.768 218.008 107.117 217.395C108.466 216.751 109.693 215.785 110.797 214.497L115.581 218.913C114.048 220.784 112.146 222.21 109.877 223.191C107.638 224.172 105.108 224.663 102.287 224.663ZM115.797 224.111L130.149 191.911H137.509L151.907 224.111H144.087L132.311 195.683H135.255L123.433 224.111H115.797ZM122.973 217.211L124.951 211.553H141.511L143.535 217.211H122.973ZM155.248 224.111V191.911H169.876C173.372 191.911 176.454 192.586 179.122 193.935C181.79 195.254 183.875 197.109 185.378 199.501C186.881 201.893 187.632 204.73 187.632 208.011C187.632 211.262 186.881 214.098 185.378 216.521C183.875 218.913 181.79 220.784 179.122 222.133C176.454 223.452 173.372 224.111 169.876 224.111H155.248ZM162.7 217.993H169.508C171.655 217.993 173.51 217.594 175.074 216.797C176.669 215.969 177.895 214.804 178.754 213.301C179.643 211.798 180.088 210.035 180.088 208.011C180.088 205.956 179.643 204.193 178.754 202.721C177.895 201.218 176.669 200.068 175.074 199.271C173.51 198.443 171.655 198.029 169.508 198.029H162.7V217.993ZM200.106 204.883H215.608V210.679H200.106V204.883ZM200.658 218.131H218.184V224.111H193.252V191.911H217.586V197.891H200.658V218.131ZM224.113 224.111V191.911H230.277L243.985 214.635H240.719L254.197 191.911H260.315L260.407 224.111H253.415L253.369 202.629H254.657L243.893 220.707H240.535L229.541 202.629H231.105V224.111H224.113ZM276.051 224.111V210.955L277.753 215.463L263.585 191.911H271.497L282.353 209.989H277.799L288.701 191.911H296.015L281.847 215.463L283.503 210.955V224.111H276.051Z" fill="#FF7509"/>
<path d="M21.8849 332V321.818H25.902C26.6742 321.818 27.3321 321.966 27.8757 322.261C28.4193 322.552 28.8336 322.958 29.1186 323.479C29.407 323.996 29.5511 324.592 29.5511 325.268C29.5511 325.945 29.4053 326.541 29.1136 327.058C28.822 327.575 28.3994 327.978 27.8459 328.266C27.2957 328.555 26.6295 328.699 25.8473 328.699H23.2869V326.974H25.4993C25.9136 326.974 26.255 326.902 26.5234 326.76C26.7952 326.614 26.9974 326.414 27.13 326.158C27.2659 325.9 27.3338 325.603 27.3338 325.268C27.3338 324.93 27.2659 324.635 27.13 324.384C26.9974 324.128 26.7952 323.931 26.5234 323.792C26.2517 323.649 25.907 323.578 25.4893 323.578H24.0376V332H21.8849ZM32.8821 332.144C32.3949 332.144 31.9607 332.06 31.5795 331.891C31.1984 331.718 30.8968 331.465 30.6747 331.13C30.456 330.792 30.3466 330.371 30.3466 329.867C30.3466 329.443 30.4245 329.087 30.5803 328.798C30.736 328.51 30.9482 328.278 31.2166 328.102C31.4851 327.927 31.79 327.794 32.1314 327.705C32.4761 327.615 32.8374 327.552 33.2152 327.516C33.6593 327.469 34.0173 327.426 34.2891 327.386C34.5608 327.343 34.758 327.28 34.8807 327.197C35.0033 327.115 35.0646 326.992 35.0646 326.83V326.8C35.0646 326.485 34.9652 326.241 34.7663 326.069C34.5708 325.897 34.2924 325.81 33.9311 325.81C33.55 325.81 33.2467 325.895 33.0213 326.064C32.7959 326.23 32.6468 326.438 32.5739 326.69L30.6151 326.531C30.7145 326.067 30.91 325.666 31.2017 325.328C31.4934 324.987 31.8696 324.725 32.3303 324.543C32.7943 324.357 33.3312 324.264 33.9411 324.264C34.3653 324.264 34.7713 324.314 35.1591 324.413C35.5502 324.513 35.8965 324.667 36.1982 324.876C36.5031 325.085 36.7434 325.353 36.919 325.681C37.0947 326.006 37.1825 326.395 37.1825 326.849V332H35.174V330.941H35.1143C34.9917 331.18 34.8277 331.39 34.6222 331.572C34.4167 331.751 34.1697 331.892 33.8814 331.995C33.593 332.094 33.2599 332.144 32.8821 332.144ZM33.4886 330.683C33.8002 330.683 34.0753 330.621 34.3139 330.499C34.5526 330.373 34.7398 330.204 34.8757 329.991C35.0116 329.779 35.0795 329.539 35.0795 329.271V328.46C35.0133 328.503 34.9221 328.543 34.8061 328.58C34.6934 328.613 34.5658 328.644 34.4233 328.674C34.2808 328.701 34.1383 328.725 33.9957 328.749C33.8532 328.768 33.724 328.787 33.608 328.803C33.3594 328.84 33.1423 328.898 32.9567 328.977C32.7711 329.057 32.6269 329.165 32.5241 329.3C32.4214 329.433 32.37 329.599 32.37 329.798C32.37 330.086 32.4744 330.306 32.6832 330.459C32.8954 330.608 33.1638 330.683 33.4886 330.683ZM45.1793 326.541L43.2404 326.661C43.2073 326.495 43.136 326.346 43.0266 326.213C42.9173 326.077 42.7731 325.969 42.5941 325.89C42.4184 325.807 42.208 325.766 41.9627 325.766C41.6346 325.766 41.3578 325.835 41.1325 325.974C40.9071 326.11 40.7944 326.293 40.7944 326.521C40.7944 326.704 40.8673 326.858 41.0131 326.984C41.159 327.11 41.4092 327.211 41.7638 327.287L43.146 327.565C43.8884 327.718 44.4419 327.963 44.8065 328.301C45.171 328.639 45.3533 329.083 45.3533 329.634C45.3533 330.134 45.2058 330.573 44.9109 330.951C44.6192 331.329 44.2182 331.624 43.7077 331.836C43.2006 332.045 42.6156 332.149 41.9528 332.149C40.9419 332.149 40.1365 331.939 39.5366 331.518C38.94 331.094 38.5903 330.517 38.4876 329.788L40.5707 329.678C40.6336 329.987 40.7861 330.222 41.0281 330.384C41.27 330.543 41.5799 330.623 41.9577 330.623C42.329 330.623 42.6272 330.552 42.8526 330.409C43.0813 330.263 43.1973 330.076 43.2006 329.847C43.1973 329.655 43.1161 329.498 42.957 329.375C42.7979 329.249 42.5527 329.153 42.2212 329.087L40.8988 328.823C40.1531 328.674 39.5979 328.415 39.2333 328.048C38.872 327.68 38.6914 327.211 38.6914 326.641C38.6914 326.15 38.824 325.728 39.0891 325.373C39.3576 325.018 39.7338 324.745 40.2177 324.553C40.7049 324.36 41.275 324.264 41.9279 324.264C42.8924 324.264 43.6514 324.468 44.2049 324.876C44.7617 325.283 45.0865 325.839 45.1793 326.541ZM53.0407 326.541L51.1017 326.661C51.0686 326.495 50.9973 326.346 50.888 326.213C50.7786 326.077 50.6344 325.969 50.4554 325.89C50.2798 325.807 50.0693 325.766 49.824 325.766C49.4959 325.766 49.2192 325.835 48.9938 325.974C48.7684 326.11 48.6557 326.293 48.6557 326.521C48.6557 326.704 48.7286 326.858 48.8745 326.984C49.0203 327.11 49.2705 327.211 49.6252 327.287L51.0073 327.565C51.7497 327.718 52.3032 327.963 52.6678 328.301C53.0324 328.639 53.2147 329.083 53.2147 329.634C53.2147 330.134 53.0672 330.573 52.7722 330.951C52.4805 331.329 52.0795 331.624 51.5691 331.836C51.062 332.045 50.477 332.149 49.8141 332.149C48.8032 332.149 47.9978 331.939 47.3979 331.518C46.8013 331.094 46.4516 330.517 46.3489 329.788L48.432 329.678C48.495 329.987 48.6474 330.222 48.8894 330.384C49.1313 330.543 49.4412 330.623 49.8191 330.623C50.1903 330.623 50.4886 330.552 50.714 330.409C50.9426 330.263 51.0587 330.076 51.062 329.847C51.0587 329.655 50.9775 329.498 50.8184 329.375C50.6593 329.249 50.414 329.153 50.0826 329.087L48.7601 328.823C48.0144 328.674 47.4592 328.415 47.0946 328.048C46.7334 327.68 46.5527 327.211 46.5527 326.641C46.5527 326.15 46.6853 325.728 46.9505 325.373C47.2189 325.018 47.5951 324.745 48.079 324.553C48.5662 324.36 49.1363 324.264 49.7892 324.264C50.7537 324.264 51.5127 324.468 52.0662 324.876C52.623 325.283 52.9479 325.839 53.0407 326.541ZM56.0547 332L53.9766 324.364H56.1193L57.3026 329.494H57.3722L58.6051 324.364H60.7081L61.9609 329.464H62.0256L63.1889 324.364H65.3267L63.2536 332H61.0114L59.6989 327.197H59.6044L58.2919 332H56.0547ZM69.7154 332.149C68.9431 332.149 68.2753 331.985 67.7118 331.657C67.1517 331.326 66.7192 330.865 66.4142 330.275C66.1093 329.682 65.9569 328.994 65.9569 328.212C65.9569 327.423 66.1093 326.733 66.4142 326.143C66.7192 325.55 67.1517 325.089 67.7118 324.761C68.2753 324.43 68.9431 324.264 69.7154 324.264C70.4876 324.264 71.1538 324.43 71.714 324.761C72.2774 325.089 72.7116 325.55 73.0165 326.143C73.3214 326.733 73.4739 327.423 73.4739 328.212C73.4739 328.994 73.3214 329.682 73.0165 330.275C72.7116 330.865 72.2774 331.326 71.714 331.657C71.1538 331.985 70.4876 332.149 69.7154 332.149ZM69.7253 330.509C70.0766 330.509 70.37 330.409 70.6053 330.21C70.8406 330.008 71.0179 329.733 71.1373 329.385C71.2599 329.037 71.3212 328.641 71.3212 328.197C71.3212 327.753 71.2599 327.357 71.1373 327.009C71.0179 326.661 70.8406 326.385 70.6053 326.183C70.37 325.981 70.0766 325.88 69.7253 325.88C69.3707 325.88 69.0724 325.981 68.8304 326.183C68.5918 326.385 68.4112 326.661 68.2885 327.009C68.1692 327.357 68.1096 327.753 68.1096 328.197C68.1096 328.641 68.1692 329.037 68.2885 329.385C68.4112 329.733 68.5918 330.008 68.8304 330.21C69.0724 330.409 69.3707 330.509 69.7253 330.509ZM74.851 332V324.364H76.9043V325.696H76.9838C77.123 325.222 77.3567 324.864 77.6848 324.622C78.013 324.377 78.3908 324.254 78.8184 324.254C78.9244 324.254 79.0388 324.261 79.1614 324.274C79.284 324.287 79.3917 324.306 79.4846 324.329V326.208C79.3851 326.178 79.2476 326.152 79.0719 326.129C78.8962 326.105 78.7355 326.094 78.5897 326.094C78.2781 326.094 77.9997 326.162 77.7544 326.298C77.5125 326.43 77.3203 326.616 77.1777 326.854C77.0385 327.093 76.9689 327.368 76.9689 327.68V332H74.851ZM83.038 332.124C82.458 332.124 81.9326 331.975 81.462 331.677C80.9947 331.375 80.6235 330.933 80.3484 330.349C80.0766 329.763 79.9407 329.044 79.9407 328.192C79.9407 327.317 80.0816 326.589 80.3633 326.009C80.645 325.426 81.0195 324.99 81.4869 324.702C81.9575 324.41 82.4729 324.264 83.033 324.264C83.4606 324.264 83.8169 324.337 84.1019 324.483C84.3903 324.625 84.6223 324.804 84.7979 325.02C84.9769 325.232 85.1128 325.441 85.2056 325.646H85.2702V321.818H87.3832V332H85.2951V330.777H85.2056C85.1062 330.989 84.9653 331.2 84.783 331.408C84.604 331.614 84.3704 331.785 84.082 331.92C83.797 332.056 83.449 332.124 83.038 332.124ZM83.7092 330.439C84.0505 330.439 84.3389 330.346 84.5742 330.161C84.8129 329.972 84.9951 329.708 85.1211 329.37C85.2504 329.032 85.315 328.636 85.315 328.182C85.315 327.728 85.252 327.333 85.1261 326.999C85.0001 326.664 84.8178 326.405 84.5792 326.223C84.3406 326.041 84.0505 325.95 83.7092 325.95C83.3612 325.95 83.0678 326.044 82.8292 326.233C82.5906 326.422 82.4099 326.684 82.2873 327.018C82.1647 327.353 82.1033 327.741 82.1033 328.182C82.1033 328.626 82.1647 329.019 82.2873 329.36C82.4132 329.698 82.5939 329.963 82.8292 330.156C83.0678 330.344 83.3612 330.439 83.7092 330.439ZM90.3624 332.129C90.0343 332.129 89.7525 332.013 89.5172 331.781C89.2852 331.546 89.1692 331.264 89.1692 330.936C89.1692 330.611 89.2852 330.333 89.5172 330.101C89.7525 329.869 90.0343 329.753 90.3624 329.753C90.6806 329.753 90.959 329.869 91.1976 330.101C91.4363 330.333 91.5556 330.611 91.5556 330.936C91.5556 331.155 91.4992 331.355 91.3865 331.538C91.2772 331.717 91.133 331.861 90.954 331.97C90.775 332.076 90.5778 332.129 90.3624 332.129ZM90.3624 326.78C90.0343 326.78 89.7525 326.664 89.5172 326.432C89.2852 326.2 89.1692 325.918 89.1692 325.587C89.1692 325.262 89.2852 324.985 89.5172 324.756C89.7525 324.524 90.0343 324.408 90.3624 324.408C90.6806 324.408 90.959 324.524 91.1976 324.756C91.4363 324.985 91.5556 325.262 91.5556 325.587C91.5556 325.809 91.4992 326.011 91.3865 326.193C91.2772 326.372 91.133 326.515 90.954 326.621C90.775 326.727 90.5778 326.78 90.3624 326.78ZM96.5346 334.864V324.364H98.6227V325.646H98.7172C98.81 325.441 98.9442 325.232 99.1199 325.02C99.2988 324.804 99.5308 324.625 99.8159 324.483C100.104 324.337 100.462 324.264 100.89 324.264C101.447 324.264 101.96 324.41 102.431 324.702C102.902 324.99 103.278 325.426 103.559 326.009C103.841 326.589 103.982 327.317 103.982 328.192C103.982 329.044 103.845 329.763 103.569 330.349C103.298 330.933 102.926 331.375 102.456 331.677C101.988 331.975 101.465 332.124 100.885 332.124C100.474 332.124 100.124 332.056 99.8358 331.92C99.5507 331.785 99.3171 331.614 99.1348 331.408C98.9525 331.2 98.8133 330.989 98.7172 330.777H98.6525V334.864H96.5346ZM98.6078 328.182C98.6078 328.636 98.6708 329.032 98.7967 329.37C98.9226 329.708 99.1049 329.972 99.3436 330.161C99.5822 330.346 99.8722 330.439 100.214 330.439C100.558 330.439 100.85 330.344 101.089 330.156C101.327 329.963 101.508 329.698 101.631 329.36C101.756 329.019 101.819 328.626 101.819 328.182C101.819 327.741 101.758 327.353 101.635 327.018C101.513 326.684 101.332 326.422 101.094 326.233C100.855 326.044 100.562 325.95 100.214 325.95C99.8689 325.95 99.5772 326.041 99.3386 326.223C99.1033 326.405 98.9226 326.664 98.7967 326.999C98.6708 327.333 98.6078 327.728 98.6078 328.182ZM105.394 332V324.364H107.447V325.696H107.527C107.666 325.222 107.9 324.864 108.228 324.622C108.556 324.377 108.934 324.254 109.361 324.254C109.467 324.254 109.582 324.261 109.704 324.274C109.827 324.287 109.935 324.306 110.028 324.329V326.208C109.928 326.178 109.791 326.152 109.615 326.129C109.439 326.105 109.278 326.094 109.133 326.094C108.821 326.094 108.543 326.162 108.297 326.298C108.055 326.43 107.863 326.616 107.721 326.854C107.581 327.093 107.512 327.368 107.512 327.68V332H105.394ZM116.02 328.749V324.364H118.137V332H116.104V330.613H116.025C115.852 331.06 115.565 331.42 115.164 331.692C114.767 331.964 114.281 332.099 113.708 332.099C113.197 332.099 112.748 331.983 112.36 331.751C111.973 331.519 111.669 331.19 111.451 330.762C111.235 330.335 111.126 329.822 111.123 329.226V324.364H113.24V328.848C113.244 329.299 113.365 329.655 113.603 329.917C113.842 330.179 114.162 330.31 114.563 330.31C114.818 330.31 115.057 330.252 115.279 330.136C115.501 330.016 115.68 329.841 115.816 329.609C115.955 329.377 116.023 329.09 116.02 328.749ZM123.312 332.149C122.526 332.149 121.85 331.99 121.283 331.672C120.72 331.35 120.286 330.896 119.981 330.31C119.676 329.72 119.523 329.022 119.523 328.217C119.523 327.431 119.676 326.742 119.981 326.148C120.286 325.555 120.715 325.093 121.268 324.761C121.825 324.43 122.478 324.264 123.227 324.264C123.731 324.264 124.2 324.345 124.634 324.508C125.072 324.667 125.453 324.907 125.778 325.229C126.106 325.55 126.361 325.955 126.543 326.442C126.725 326.926 126.817 327.492 126.817 328.142V328.724H120.368V327.411H124.823C124.823 327.106 124.757 326.836 124.624 326.601C124.492 326.366 124.308 326.182 124.072 326.049C123.84 325.913 123.57 325.845 123.262 325.845C122.94 325.845 122.655 325.92 122.407 326.069C122.162 326.215 121.969 326.412 121.83 326.661C121.691 326.906 121.62 327.179 121.616 327.481V328.729C121.616 329.107 121.686 329.433 121.825 329.708C121.968 329.983 122.168 330.195 122.427 330.344C122.685 330.494 122.992 330.568 123.346 330.568C123.582 330.568 123.797 330.535 123.993 330.469C124.188 330.402 124.356 330.303 124.495 330.17C124.634 330.038 124.74 329.875 124.813 329.683L126.772 329.812C126.672 330.283 126.469 330.694 126.16 331.045C125.855 331.393 125.461 331.665 124.977 331.861C124.497 332.053 123.941 332.149 123.312 332.149ZM128.238 332V321.818H130.356V325.646H130.421C130.514 325.441 130.648 325.232 130.824 325.02C131.003 324.804 131.235 324.625 131.52 324.483C131.808 324.337 132.166 324.264 132.594 324.264C133.15 324.264 133.664 324.41 134.135 324.702C134.605 324.99 134.982 325.426 135.263 326.009C135.545 326.589 135.686 327.317 135.686 328.192C135.686 329.044 135.548 329.763 135.273 330.349C135.001 330.933 134.63 331.375 134.16 331.677C133.692 331.975 133.169 332.124 132.589 332.124C132.178 332.124 131.828 332.056 131.54 331.92C131.255 331.785 131.021 331.614 130.839 331.408C130.656 331.2 130.517 330.989 130.421 330.777H130.327V332H128.238ZM130.312 328.182C130.312 328.636 130.375 329.032 130.501 329.37C130.626 329.708 130.809 329.972 131.047 330.161C131.286 330.346 131.576 330.439 131.917 330.439C132.262 330.439 132.554 330.344 132.792 330.156C133.031 329.963 133.212 329.698 133.334 329.36C133.46 329.019 133.523 328.626 133.523 328.182C133.523 327.741 133.462 327.353 133.339 327.018C133.217 326.684 133.036 326.422 132.797 326.233C132.559 326.044 132.265 325.95 131.917 325.95C131.573 325.95 131.281 326.041 131.042 326.223C130.807 326.405 130.626 326.664 130.501 326.999C130.375 327.333 130.312 327.728 130.312 328.182ZM139.277 332.144C138.789 332.144 138.355 332.06 137.974 331.891C137.593 331.718 137.291 331.465 137.069 331.13C136.85 330.792 136.741 330.371 136.741 329.867C136.741 329.443 136.819 329.087 136.975 328.798C137.131 328.51 137.343 328.278 137.611 328.102C137.88 327.927 138.185 327.794 138.526 327.705C138.871 327.615 139.232 327.552 139.61 327.516C140.054 327.469 140.412 327.426 140.684 327.386C140.955 327.343 141.153 327.28 141.275 327.197C141.398 327.115 141.459 326.992 141.459 326.83V326.8C141.459 326.485 141.36 326.241 141.161 326.069C140.965 325.897 140.687 325.81 140.326 325.81C139.944 325.81 139.641 325.895 139.416 326.064C139.19 326.23 139.041 326.438 138.968 326.69L137.01 326.531C137.109 326.067 137.305 325.666 137.596 325.328C137.888 324.987 138.264 324.725 138.725 324.543C139.189 324.357 139.726 324.264 140.336 324.264C140.76 324.264 141.166 324.314 141.554 324.413C141.945 324.513 142.291 324.667 142.593 324.876C142.898 325.085 143.138 325.353 143.314 325.681C143.489 326.006 143.577 326.395 143.577 326.849V332H141.569V330.941H141.509C141.386 331.18 141.222 331.39 141.017 331.572C140.811 331.751 140.564 331.892 140.276 331.995C139.988 332.094 139.654 332.144 139.277 332.144ZM139.883 330.683C140.195 330.683 140.47 330.621 140.708 330.499C140.947 330.373 141.134 330.204 141.27 329.991C141.406 329.779 141.474 329.539 141.474 329.271V328.46C141.408 328.503 141.317 328.543 141.201 328.58C141.088 328.613 140.96 328.644 140.818 328.674C140.675 328.701 140.533 328.725 140.39 328.749C140.248 328.768 140.118 328.787 140.002 328.803C139.754 328.84 139.537 328.898 139.351 328.977C139.166 329.057 139.021 329.165 138.919 329.3C138.816 329.433 138.765 329.599 138.765 329.798C138.765 330.086 138.869 330.306 139.078 330.459C139.29 330.608 139.558 330.683 139.883 330.683Z" fill="white"/>
<path d="M28.174 289.818H30.3267V296.43C30.3267 297.173 30.1494 297.822 29.7947 298.379C29.4434 298.936 28.9512 299.37 28.3182 299.682C27.6851 299.99 26.9477 300.144 26.1058 300.144C25.2607 300.144 24.5215 299.99 23.8885 299.682C23.2554 299.37 22.7633 298.936 22.4119 298.379C22.0606 297.822 21.8849 297.173 21.8849 296.43V289.818H24.0376V296.246C24.0376 296.634 24.1222 296.979 24.2912 297.281C24.4635 297.582 24.7055 297.819 25.017 297.991C25.3286 298.164 25.6915 298.25 26.1058 298.25C26.5234 298.25 26.8864 298.164 27.1946 297.991C27.5062 297.819 27.7464 297.582 27.9155 297.281C28.0878 296.979 28.174 296.634 28.174 296.246V289.818ZM38.4118 294.541L36.4728 294.661C36.4397 294.495 36.3684 294.346 36.2591 294.213C36.1497 294.077 36.0055 293.969 35.8265 293.89C35.6509 293.807 35.4404 293.766 35.1951 293.766C34.867 293.766 34.5903 293.835 34.3649 293.974C34.1395 294.11 34.0268 294.293 34.0268 294.521C34.0268 294.704 34.0997 294.858 34.2456 294.984C34.3914 295.11 34.6416 295.211 34.9963 295.287L36.3784 295.565C37.1208 295.718 37.6743 295.963 38.0389 296.301C38.4035 296.639 38.5858 297.083 38.5858 297.634C38.5858 298.134 38.4383 298.573 38.1433 298.951C37.8516 299.329 37.4506 299.624 36.9402 299.836C36.4331 300.045 35.8481 300.149 35.1852 300.149C34.1743 300.149 33.3689 299.939 32.769 299.518C32.1724 299.094 31.8227 298.517 31.72 297.788L33.8031 297.678C33.8661 297.987 34.0185 298.222 34.2605 298.384C34.5024 298.543 34.8123 298.623 35.1902 298.623C35.5614 298.623 35.8597 298.552 36.085 298.409C36.3137 298.263 36.4297 298.076 36.4331 297.847C36.4297 297.655 36.3485 297.498 36.1895 297.375C36.0304 297.249 35.7851 297.153 35.4537 297.087L34.1312 296.823C33.3855 296.674 32.8303 296.415 32.4657 296.048C32.1045 295.68 31.9238 295.211 31.9238 294.641C31.9238 294.15 32.0564 293.728 32.3216 293.373C32.59 293.018 32.9662 292.745 33.4501 292.553C33.9373 292.36 34.5074 292.264 35.1603 292.264C36.1248 292.264 36.8838 292.468 37.4373 292.876C37.9941 293.283 38.319 293.839 38.4118 294.541ZM43.3995 300.149C42.614 300.149 41.9379 299.99 41.3711 299.672C40.8076 299.35 40.3735 298.896 40.0685 298.31C39.7636 297.72 39.6112 297.022 39.6112 296.217C39.6112 295.431 39.7636 294.742 40.0685 294.148C40.3735 293.555 40.8027 293.093 41.3562 292.761C41.913 292.43 42.5659 292.264 43.315 292.264C43.8188 292.264 44.2878 292.345 44.7219 292.508C45.1594 292.667 45.5406 292.907 45.8654 293.229C46.1935 293.55 46.4487 293.955 46.631 294.442C46.8133 294.926 46.9045 295.492 46.9045 296.142V296.724H40.4563V295.411H44.9109C44.9109 295.106 44.8446 294.836 44.712 294.601C44.5794 294.366 44.3955 294.182 44.1602 294.049C43.9281 293.913 43.658 293.845 43.3498 293.845C43.0283 293.845 42.7433 293.92 42.4947 294.069C42.2494 294.215 42.0572 294.412 41.918 294.661C41.7788 294.906 41.7075 295.179 41.7042 295.481V296.729C41.7042 297.107 41.7738 297.433 41.913 297.708C42.0555 297.983 42.256 298.195 42.5146 298.344C42.7731 298.494 43.0797 298.568 43.4343 298.568C43.6696 298.568 43.8851 298.535 44.0806 298.469C44.2762 298.402 44.4435 298.303 44.5827 298.17C44.7219 298.038 44.828 297.875 44.9009 297.683L46.8597 297.812C46.7603 298.283 46.5565 298.694 46.2482 299.045C45.9433 299.393 45.5489 299.665 45.065 299.861C44.5844 300.053 44.0292 300.149 43.3995 300.149ZM48.2866 300V292.364H50.3398V293.696H50.4194C50.5586 293.222 50.7923 292.864 51.1204 292.622C51.4485 292.377 51.8263 292.254 52.2539 292.254C52.36 292.254 52.4743 292.261 52.5969 292.274C52.7196 292.287 52.8273 292.306 52.9201 292.329V294.208C52.8207 294.178 52.6831 294.152 52.5075 294.129C52.3318 294.105 52.171 294.094 52.0252 294.094C51.7137 294.094 51.4353 294.162 51.19 294.298C50.948 294.43 50.7558 294.616 50.6133 294.854C50.4741 295.093 50.4045 295.368 50.4045 295.68V300H48.2866ZM55.253 300.129C54.9249 300.129 54.6432 300.013 54.4078 299.781C54.1758 299.546 54.0598 299.264 54.0598 298.936C54.0598 298.611 54.1758 298.333 54.4078 298.101C54.6432 297.869 54.9249 297.753 55.253 297.753C55.5712 297.753 55.8496 297.869 56.0882 298.101C56.3269 298.333 56.4462 298.611 56.4462 298.936C56.4462 299.155 56.3899 299.355 56.2772 299.538C56.1678 299.717 56.0236 299.861 55.8446 299.97C55.6657 300.076 55.4685 300.129 55.253 300.129ZM55.253 294.78C54.9249 294.78 54.6432 294.664 54.4078 294.432C54.1758 294.2 54.0598 293.918 54.0598 293.587C54.0598 293.262 54.1758 292.985 54.4078 292.756C54.6432 292.524 54.9249 292.408 55.253 292.408C55.5712 292.408 55.8496 292.524 56.0882 292.756C56.3269 292.985 56.4462 293.262 56.4462 293.587C56.4462 293.809 56.3899 294.011 56.2772 294.193C56.1678 294.372 56.0236 294.515 55.8446 294.621C55.6657 294.727 55.4685 294.78 55.253 294.78ZM66.3223 296.749V292.364H68.4402V300H66.4068V298.613H66.3272C66.1549 299.06 65.8682 299.42 65.4672 299.692C65.0694 299.964 64.5839 300.099 64.0105 300.099C63.5001 300.099 63.051 299.983 62.6632 299.751C62.2754 299.519 61.9721 299.19 61.7534 298.762C61.5379 298.335 61.4286 297.822 61.4252 297.226V292.364H63.5431V296.848C63.5465 297.299 63.6674 297.655 63.9061 297.917C64.1447 298.179 64.4645 298.31 64.8656 298.31C65.1208 298.31 65.3594 298.252 65.5815 298.136C65.8036 298.016 65.9825 297.841 66.1184 297.609C66.2576 297.377 66.3256 297.09 66.3223 296.749ZM76.4879 294.541L74.549 294.661C74.5159 294.495 74.4446 294.346 74.3352 294.213C74.2259 294.077 74.0817 293.969 73.9027 293.89C73.727 293.807 73.5166 293.766 73.2713 293.766C72.9432 293.766 72.6664 293.835 72.4411 293.974C72.2157 294.11 72.103 294.293 72.103 294.521C72.103 294.704 72.1759 294.858 72.3217 294.984C72.4676 295.11 72.7178 295.211 73.0724 295.287L74.4545 295.565C75.197 295.718 75.7505 295.963 76.1151 296.301C76.4796 296.639 76.6619 297.083 76.6619 297.634C76.6619 298.134 76.5144 298.573 76.2195 298.951C75.9278 299.329 75.5268 299.624 75.0163 299.836C74.5092 300.045 73.9242 300.149 73.2614 300.149C72.2505 300.149 71.4451 299.939 70.8452 299.518C70.2486 299.094 69.8989 298.517 69.7962 297.788L71.8793 297.678C71.9422 297.987 72.0947 298.222 72.3366 298.384C72.5786 298.543 72.8885 298.623 73.2663 298.623C73.6375 298.623 73.9358 298.552 74.1612 298.409C74.3899 298.263 74.5059 298.076 74.5092 297.847C74.5059 297.655 74.4247 297.498 74.2656 297.375C74.1065 297.249 73.8613 297.153 73.5298 297.087L72.2074 296.823C71.4616 296.674 70.9065 296.415 70.5419 296.048C70.1806 295.68 70 295.211 70 294.641C70 294.15 70.1326 293.728 70.3977 293.373C70.6662 293.018 71.0424 292.745 71.5263 292.553C72.0135 292.36 72.5836 292.264 73.2365 292.264C74.201 292.264 74.96 292.468 75.5135 292.876C76.0703 293.283 76.3951 293.839 76.4879 294.541ZM82.8926 296.749V292.364H85.0105V300H82.9771V298.613H82.8975C82.7252 299.06 82.4385 299.42 82.0375 299.692C81.6397 299.964 81.1542 300.099 80.5808 300.099C80.0704 300.099 79.6213 299.983 79.2335 299.751C78.8457 299.519 78.5424 299.19 78.3237 298.762C78.1083 298.335 77.9989 297.822 77.9956 297.226V292.364H80.1135V296.848C80.1168 297.299 80.2377 297.655 80.4764 297.917C80.715 298.179 81.0349 298.31 81.4359 298.31C81.6911 298.31 81.9297 298.252 82.1518 298.136C82.3739 298.016 82.5529 297.841 82.6887 297.609C82.8279 297.377 82.8959 297.09 82.8926 296.749ZM88.8821 300.144C88.3949 300.144 87.9607 300.06 87.5795 299.891C87.1984 299.718 86.8968 299.465 86.6747 299.13C86.456 298.792 86.3466 298.371 86.3466 297.867C86.3466 297.443 86.4245 297.087 86.5803 296.798C86.736 296.51 86.9482 296.278 87.2166 296.102C87.4851 295.927 87.79 295.794 88.1314 295.705C88.4761 295.615 88.8374 295.552 89.2152 295.516C89.6593 295.469 90.0173 295.426 90.2891 295.386C90.5608 295.343 90.758 295.28 90.8807 295.197C91.0033 295.115 91.0646 294.992 91.0646 294.83V294.8C91.0646 294.485 90.9652 294.241 90.7663 294.069C90.5708 293.897 90.2924 293.81 89.9311 293.81C89.55 293.81 89.2467 293.895 89.0213 294.064C88.7959 294.23 88.6468 294.438 88.5739 294.69L86.6151 294.531C86.7145 294.067 86.91 293.666 87.2017 293.328C87.4934 292.987 87.8696 292.725 88.3303 292.543C88.7943 292.357 89.3312 292.264 89.9411 292.264C90.3653 292.264 90.7713 292.314 91.1591 292.413C91.5502 292.513 91.8965 292.667 92.1982 292.876C92.5031 293.085 92.7434 293.353 92.919 293.681C93.0947 294.006 93.1825 294.395 93.1825 294.849V300H91.174V298.941H91.1143C90.9917 299.18 90.8277 299.39 90.6222 299.572C90.4167 299.751 90.1697 299.892 89.8814 299.995C89.593 300.094 89.2599 300.144 88.8821 300.144ZM89.4886 298.683C89.8002 298.683 90.0753 298.621 90.3139 298.499C90.5526 298.373 90.7398 298.204 90.8757 297.991C91.0116 297.779 91.0795 297.539 91.0795 297.271V296.46C91.0133 296.503 90.9221 296.543 90.8061 296.58C90.6934 296.613 90.5658 296.644 90.4233 296.674C90.2808 296.701 90.1383 296.725 89.9957 296.749C89.8532 296.768 89.724 296.787 89.608 296.803C89.3594 296.84 89.1423 296.898 88.9567 296.977C88.7711 297.057 88.6269 297.165 88.5241 297.3C88.4214 297.433 88.37 297.599 88.37 297.798C88.37 298.086 88.4744 298.306 88.6832 298.459C88.8954 298.608 89.1638 298.683 89.4886 298.683ZM94.8256 300V292.364H96.8789V293.696H96.9585C97.0977 293.222 97.3313 292.864 97.6594 292.622C97.9876 292.377 98.3654 292.254 98.793 292.254C98.899 292.254 99.0134 292.261 99.136 292.274C99.2586 292.287 99.3664 292.306 99.4592 292.329V294.208C99.3597 294.178 99.2222 294.152 99.0465 294.129C98.8709 294.105 98.7101 294.094 98.5643 294.094C98.2527 294.094 97.9743 294.162 97.729 294.298C97.4871 294.43 97.2949 294.616 97.1523 294.854C97.0131 295.093 96.9435 295.368 96.9435 295.68V300H94.8256ZM100.554 300V292.364H102.672V300H100.554ZM101.618 291.379C101.303 291.379 101.033 291.275 100.808 291.066C100.586 290.854 100.475 290.6 100.475 290.305C100.475 290.014 100.586 289.763 100.808 289.555C101.033 289.343 101.303 289.237 101.618 289.237C101.933 289.237 102.201 289.343 102.423 289.555C102.649 289.763 102.762 290.014 102.762 290.305C102.762 290.6 102.649 290.854 102.423 291.066C102.201 291.275 101.933 291.379 101.618 291.379ZM107.819 300.149C107.047 300.149 106.379 299.985 105.815 299.657C105.255 299.326 104.823 298.865 104.518 298.275C104.213 297.682 104.06 296.994 104.06 296.212C104.06 295.423 104.213 294.733 104.518 294.143C104.823 293.55 105.255 293.089 105.815 292.761C106.379 292.43 107.047 292.264 107.819 292.264C108.591 292.264 109.257 292.43 109.817 292.761C110.381 293.089 110.815 293.55 111.12 294.143C111.425 294.733 111.577 295.423 111.577 296.212C111.577 296.994 111.425 297.682 111.12 298.275C110.815 298.865 110.381 299.326 109.817 299.657C109.257 299.985 108.591 300.149 107.819 300.149ZM107.829 298.509C108.18 298.509 108.473 298.409 108.709 298.21C108.944 298.008 109.121 297.733 109.241 297.385C109.363 297.037 109.425 296.641 109.425 296.197C109.425 295.753 109.363 295.357 109.241 295.009C109.121 294.661 108.944 294.385 108.709 294.183C108.473 293.981 108.18 293.88 107.829 293.88C107.474 293.88 107.176 293.981 106.934 294.183C106.695 294.385 106.515 294.661 106.392 295.009C106.273 295.357 106.213 295.753 106.213 296.197C106.213 296.641 106.273 297.037 106.392 297.385C106.515 297.733 106.695 298.008 106.934 298.21C107.176 298.409 107.474 298.509 107.829 298.509ZM112.955 302.864V292.364H115.043V293.646H115.137C115.23 293.441 115.364 293.232 115.54 293.02C115.719 292.804 115.951 292.625 116.236 292.483C116.524 292.337 116.882 292.264 117.31 292.264C117.866 292.264 118.38 292.41 118.851 292.702C119.321 292.99 119.698 293.426 119.979 294.009C120.261 294.589 120.402 295.317 120.402 296.192C120.402 297.044 120.264 297.763 119.989 298.349C119.718 298.933 119.346 299.375 118.876 299.677C118.408 299.975 117.885 300.124 117.305 300.124C116.894 300.124 116.544 300.056 116.256 299.92C115.971 299.785 115.737 299.614 115.555 299.408C115.372 299.2 115.233 298.989 115.137 298.777H115.072V302.864H112.955ZM115.028 296.182C115.028 296.636 115.091 297.032 115.217 297.37C115.343 297.708 115.525 297.972 115.763 298.161C116.002 298.346 116.292 298.439 116.634 298.439C116.978 298.439 117.27 298.344 117.509 298.156C117.747 297.963 117.928 297.698 118.05 297.36C118.176 297.019 118.239 296.626 118.239 296.182C118.239 295.741 118.178 295.353 118.055 295.018C117.933 294.684 117.752 294.422 117.513 294.233C117.275 294.044 116.982 293.95 116.634 293.95C116.289 293.95 115.997 294.041 115.759 294.223C115.523 294.405 115.343 294.664 115.217 294.999C115.091 295.333 115.028 295.728 115.028 296.182ZM121.814 300V292.364H123.867V293.696H123.947C124.086 293.222 124.32 292.864 124.648 292.622C124.976 292.377 125.354 292.254 125.781 292.254C125.887 292.254 126.002 292.261 126.124 292.274C126.247 292.287 126.355 292.306 126.447 292.329V294.208C126.348 294.178 126.21 294.152 126.035 294.129C125.859 294.105 125.698 294.094 125.553 294.094C125.241 294.094 124.963 294.162 124.717 294.298C124.475 294.43 124.283 294.616 124.141 294.854C124.001 295.093 123.932 295.368 123.932 295.68V300H121.814ZM132.439 296.749V292.364H134.557V300H132.524V298.613H132.444C132.272 299.06 131.985 299.42 131.584 299.692C131.187 299.964 130.701 300.099 130.128 300.099C129.617 300.099 129.168 299.983 128.78 299.751C128.393 299.519 128.089 299.19 127.871 298.762C127.655 298.335 127.546 297.822 127.542 297.226V292.364H129.66V296.848C129.664 297.299 129.785 297.655 130.023 297.917C130.262 298.179 130.582 298.31 130.983 298.31C131.238 298.31 131.477 298.252 131.699 298.136C131.921 298.016 132.1 297.841 132.236 297.609C132.375 297.377 132.443 297.09 132.439 296.749ZM139.732 300.149C138.946 300.149 138.27 299.99 137.703 299.672C137.14 299.35 136.705 298.896 136.401 298.31C136.096 297.72 135.943 297.022 135.943 296.217C135.943 295.431 136.096 294.742 136.401 294.148C136.705 293.555 137.135 293.093 137.688 292.761C138.245 292.43 138.898 292.264 139.647 292.264C140.151 292.264 140.62 292.345 141.054 292.508C141.491 292.667 141.873 292.907 142.197 293.229C142.526 293.55 142.781 293.955 142.963 294.442C143.145 294.926 143.237 295.492 143.237 296.142V296.724H136.788V295.411H141.243C141.243 295.106 141.177 294.836 141.044 294.601C140.911 294.366 140.728 294.182 140.492 294.049C140.26 293.913 139.99 293.845 139.682 293.845C139.36 293.845 139.075 293.92 138.827 294.069C138.581 294.215 138.389 294.412 138.25 294.661C138.111 294.906 138.04 295.179 138.036 295.481V296.729C138.036 297.107 138.106 297.433 138.245 297.708C138.388 297.983 138.588 298.195 138.847 298.344C139.105 298.494 139.412 298.568 139.766 298.568C140.002 298.568 140.217 298.535 140.413 298.469C140.608 298.402 140.776 298.303 140.915 298.17C141.054 298.038 141.16 297.875 141.233 297.683L143.192 297.812C143.092 298.283 142.888 298.694 142.58 299.045C142.275 299.393 141.881 299.665 141.397 299.861C140.916 300.053 140.361 300.149 139.732 300.149ZM144.658 300V289.818H146.776V293.646H146.841C146.934 293.441 147.068 293.232 147.244 293.02C147.423 292.804 147.655 292.625 147.94 292.483C148.228 292.337 148.586 292.264 149.013 292.264C149.57 292.264 150.084 292.41 150.555 292.702C151.025 292.99 151.402 293.426 151.683 294.009C151.965 294.589 152.106 295.317 152.106 296.192C152.106 297.044 151.968 297.763 151.693 298.349C151.421 298.933 151.05 299.375 150.58 299.677C150.112 299.975 149.589 300.124 149.009 300.124C148.598 300.124 148.248 300.056 147.96 299.92C147.674 299.785 147.441 299.614 147.259 299.408C147.076 299.2 146.937 298.989 146.841 298.777H146.746V300H144.658ZM146.732 296.182C146.732 296.636 146.795 297.032 146.92 297.37C147.046 297.708 147.229 297.972 147.467 298.161C147.706 298.346 147.996 298.439 148.337 298.439C148.682 298.439 148.974 298.344 149.212 298.156C149.451 297.963 149.632 297.698 149.754 297.36C149.88 297.019 149.943 296.626 149.943 296.182C149.943 295.741 149.882 295.353 149.759 295.018C149.637 294.684 149.456 294.422 149.217 294.233C148.979 294.044 148.685 293.95 148.337 293.95C147.993 293.95 147.701 294.041 147.462 294.223C147.227 294.405 147.046 294.664 146.92 294.999C146.795 295.333 146.732 295.728 146.732 296.182ZM155.697 300.144C155.209 300.144 154.775 300.06 154.394 299.891C154.013 299.718 153.711 299.465 153.489 299.13C153.27 298.792 153.161 298.371 153.161 297.867C153.161 297.443 153.239 297.087 153.395 296.798C153.55 296.51 153.763 296.278 154.031 296.102C154.3 295.927 154.604 295.794 154.946 295.705C155.291 295.615 155.652 295.552 156.03 295.516C156.474 295.469 156.832 295.426 157.104 295.386C157.375 295.343 157.573 295.28 157.695 295.197C157.818 295.115 157.879 294.992 157.879 294.83V294.8C157.879 294.485 157.78 294.241 157.581 294.069C157.385 293.897 157.107 293.81 156.746 293.81C156.364 293.81 156.061 293.895 155.836 294.064C155.61 294.23 155.461 294.438 155.388 294.69L153.43 294.531C153.529 294.067 153.724 293.666 154.016 293.328C154.308 292.987 154.684 292.725 155.145 292.543C155.609 292.357 156.146 292.264 156.756 292.264C157.18 292.264 157.586 292.314 157.974 292.413C158.365 292.513 158.711 292.667 159.013 292.876C159.318 293.085 159.558 293.353 159.733 293.681C159.909 294.006 159.997 294.395 159.997 294.849V300H157.988V298.941H157.929C157.806 299.18 157.642 299.39 157.437 299.572C157.231 299.751 156.984 299.892 156.696 299.995C156.407 300.094 156.074 300.144 155.697 300.144ZM156.303 298.683C156.615 298.683 156.89 298.621 157.128 298.499C157.367 298.373 157.554 298.204 157.69 297.991C157.826 297.779 157.894 297.539 157.894 297.271V296.46C157.828 296.503 157.737 296.543 157.621 296.58C157.508 296.613 157.38 296.644 157.238 296.674C157.095 296.701 156.953 296.725 156.81 296.749C156.668 296.768 156.538 296.787 156.422 296.803C156.174 296.84 155.957 296.898 155.771 296.977C155.586 297.057 155.441 297.165 155.339 297.3C155.236 297.433 155.184 297.599 155.184 297.798C155.184 298.086 155.289 298.306 155.498 298.459C155.71 298.608 155.978 298.683 156.303 298.683ZM168.307 302.933C167.25 302.933 166.308 302.789 165.483 302.501C164.658 302.216 163.96 301.796 163.39 301.243C162.82 300.693 162.386 300.02 162.088 299.224C161.789 298.429 161.64 297.524 161.64 296.51C161.64 295.509 161.789 294.601 162.088 293.786C162.389 292.97 162.828 292.271 163.405 291.688C163.982 291.101 164.686 290.65 165.518 290.335C166.353 290.02 167.304 289.863 168.372 289.863C169.359 289.863 170.241 290.007 171.017 290.295C171.795 290.584 172.455 290.995 172.995 291.528C173.539 292.059 173.951 292.69 174.233 293.423C174.518 294.152 174.659 294.959 174.656 295.844C174.659 296.454 174.606 297.014 174.497 297.524C174.387 298.035 174.215 298.48 173.98 298.862C173.748 299.239 173.443 299.539 173.065 299.761C172.687 299.98 172.23 300.104 171.693 300.134C171.308 300.164 170.997 300.136 170.758 300.05C170.519 299.964 170.337 299.836 170.211 299.667C170.088 299.495 170.009 299.294 169.972 299.065H169.913C169.833 299.264 169.677 299.445 169.445 299.607C169.213 299.766 168.93 299.891 168.595 299.98C168.264 300.066 167.911 300.098 167.536 300.075C167.145 300.051 166.774 299.96 166.423 299.801C166.075 299.642 165.765 299.412 165.493 299.11C165.225 298.808 165.012 298.436 164.857 297.991C164.704 297.547 164.626 297.034 164.623 296.45C164.626 295.874 164.708 295.371 164.867 294.944C165.029 294.516 165.243 294.157 165.508 293.865C165.776 293.573 166.075 293.345 166.403 293.179C166.731 293.013 167.061 292.907 167.392 292.861C167.767 292.804 168.121 292.804 168.456 292.861C168.791 292.917 169.073 293.008 169.301 293.134C169.533 293.26 169.677 293.396 169.734 293.542H169.803V292.985H171.36V297.837C171.363 298.066 171.414 298.243 171.514 298.369C171.613 298.495 171.747 298.558 171.916 298.558C172.145 298.558 172.336 298.457 172.488 298.255C172.644 298.053 172.76 297.743 172.836 297.325C172.916 296.908 172.955 296.376 172.955 295.729C172.955 295.106 172.873 294.559 172.707 294.089C172.544 293.615 172.316 293.212 172.021 292.881C171.729 292.546 171.389 292.274 171.002 292.065C170.614 291.857 170.193 291.704 169.739 291.608C169.288 291.512 168.824 291.464 168.347 291.464C167.521 291.464 166.801 291.59 166.184 291.842C165.568 292.09 165.054 292.44 164.643 292.891C164.232 293.341 163.924 293.87 163.718 294.477C163.516 295.08 163.413 295.738 163.41 296.45C163.413 297.236 163.523 297.932 163.738 298.538C163.957 299.142 164.278 299.649 164.703 300.06C165.127 300.471 165.651 300.782 166.274 300.994C166.897 301.206 167.613 301.312 168.421 301.312C168.802 301.312 169.175 301.284 169.54 301.228C169.905 301.175 170.234 301.109 170.529 301.029C170.824 300.953 171.061 300.878 171.24 300.805L171.732 302.247C171.524 302.366 171.24 302.478 170.882 302.58C170.528 302.686 170.127 302.771 169.679 302.834C169.235 302.9 168.778 302.933 168.307 302.933ZM168.078 298.439C168.483 298.439 168.804 298.361 169.043 298.205C169.285 298.049 169.457 297.819 169.56 297.514C169.666 297.206 169.716 296.826 169.709 296.376C169.706 295.978 169.654 295.642 169.555 295.366C169.459 295.088 169.291 294.878 169.053 294.735C168.817 294.589 168.489 294.516 168.068 294.516C167.7 294.516 167.387 294.594 167.129 294.75C166.874 294.906 166.678 295.125 166.542 295.406C166.41 295.685 166.342 296.013 166.338 296.391C166.342 296.742 166.398 297.075 166.507 297.39C166.617 297.701 166.797 297.955 167.049 298.151C167.301 298.343 167.644 298.439 168.078 298.439ZM179.504 303.023C178.818 303.023 178.23 302.928 177.739 302.739C177.252 302.554 176.864 302.3 176.576 301.979C176.288 301.657 176.1 301.296 176.014 300.895L177.973 300.631C178.033 300.784 178.127 300.926 178.256 301.059C178.386 301.192 178.556 301.298 178.768 301.377C178.984 301.46 179.246 301.501 179.554 301.501C180.015 301.501 180.394 301.389 180.692 301.163C180.994 300.941 181.145 300.568 181.145 300.045V298.648H181.055C180.963 298.86 180.823 299.06 180.638 299.249C180.452 299.438 180.214 299.592 179.922 299.712C179.63 299.831 179.282 299.891 178.878 299.891C178.304 299.891 177.782 299.758 177.312 299.493C176.844 299.224 176.472 298.815 176.193 298.265C175.918 297.711 175.781 297.012 175.781 296.167C175.781 295.302 175.921 294.579 176.203 293.999C176.485 293.419 176.859 292.985 177.327 292.697C177.797 292.408 178.313 292.264 178.873 292.264C179.3 292.264 179.658 292.337 179.947 292.483C180.235 292.625 180.467 292.804 180.643 293.02C180.822 293.232 180.959 293.441 181.055 293.646H181.135V292.364H183.238V300.075C183.238 300.724 183.079 301.268 182.761 301.705C182.442 302.143 182.002 302.471 181.438 302.69C180.878 302.912 180.233 303.023 179.504 303.023ZM179.549 298.3C179.89 298.3 180.179 298.215 180.414 298.046C180.653 297.874 180.835 297.629 180.961 297.31C181.09 296.989 181.155 296.604 181.155 296.157C181.155 295.71 181.092 295.322 180.966 294.994C180.84 294.662 180.658 294.405 180.419 294.223C180.18 294.041 179.89 293.95 179.549 293.95C179.201 293.95 178.908 294.044 178.669 294.233C178.43 294.419 178.25 294.677 178.127 295.009C178.004 295.34 177.943 295.723 177.943 296.157C177.943 296.598 178.004 296.979 178.127 297.3C178.253 297.619 178.434 297.866 178.669 298.041C178.908 298.214 179.201 298.3 179.549 298.3ZM184.923 300V292.364H186.942V293.711H187.031C187.19 293.263 187.455 292.911 187.827 292.652C188.198 292.393 188.642 292.264 189.159 292.264C189.683 292.264 190.129 292.395 190.496 292.657C190.864 292.915 191.11 293.267 191.232 293.711H191.312C191.468 293.273 191.749 292.924 192.157 292.662C192.568 292.397 193.054 292.264 193.614 292.264C194.326 292.264 194.905 292.491 195.349 292.945C195.796 293.396 196.02 294.036 196.02 294.864V300H193.907V295.282C193.907 294.858 193.794 294.54 193.569 294.327C193.344 294.115 193.062 294.009 192.724 294.009C192.339 294.009 192.039 294.132 191.824 294.377C191.608 294.619 191.501 294.939 191.501 295.337V300H189.447V295.237C189.447 294.863 189.34 294.564 189.124 294.342C188.912 294.12 188.632 294.009 188.284 294.009C188.049 294.009 187.837 294.069 187.648 294.188C187.462 294.304 187.315 294.468 187.205 294.68C187.096 294.889 187.041 295.134 187.041 295.416V300H184.923ZM199.87 300.144C199.383 300.144 198.949 300.06 198.568 299.891C198.187 299.718 197.885 299.465 197.663 299.13C197.444 298.792 197.335 298.371 197.335 297.867C197.335 297.443 197.413 297.087 197.569 296.798C197.724 296.51 197.936 296.278 198.205 296.102C198.473 295.927 198.778 295.794 199.12 295.705C199.464 295.615 199.826 295.552 200.203 295.516C200.648 295.469 201.006 295.426 201.277 295.386C201.549 295.343 201.746 295.28 201.869 295.197C201.992 295.115 202.053 294.992 202.053 294.83V294.8C202.053 294.485 201.953 294.241 201.755 294.069C201.559 293.897 201.281 293.81 200.919 293.81C200.538 293.81 200.235 293.895 200.01 294.064C199.784 294.23 199.635 294.438 199.562 294.69L197.603 294.531C197.703 294.067 197.898 293.666 198.19 293.328C198.482 292.987 198.858 292.725 199.319 292.543C199.783 292.357 200.319 292.264 200.929 292.264C201.354 292.264 201.76 292.314 202.147 292.413C202.538 292.513 202.885 292.667 203.186 292.876C203.491 293.085 203.732 293.353 203.907 293.681C204.083 294.006 204.171 294.395 204.171 294.849V300H202.162V298.941H202.103C201.98 299.18 201.816 299.39 201.61 299.572C201.405 299.751 201.158 299.892 200.87 299.995C200.581 300.094 200.248 300.144 199.87 300.144ZM200.477 298.683C200.788 298.683 201.064 298.621 201.302 298.499C201.541 298.373 201.728 298.204 201.864 297.991C202 297.779 202.068 297.539 202.068 297.271V296.46C202.002 296.503 201.91 296.543 201.794 296.58C201.682 296.613 201.554 296.644 201.412 296.674C201.269 296.701 201.127 296.725 200.984 296.749C200.842 296.768 200.712 296.787 200.596 296.803C200.348 296.84 200.131 296.898 199.945 296.977C199.759 297.057 199.615 297.165 199.512 297.3C199.41 297.433 199.358 297.599 199.358 297.798C199.358 298.086 199.463 298.306 199.672 298.459C199.884 298.608 200.152 298.683 200.477 298.683ZM205.814 300V292.364H207.932V300H205.814ZM206.878 291.379C206.563 291.379 206.293 291.275 206.067 291.066C205.845 290.854 205.734 290.6 205.734 290.305C205.734 290.014 205.845 289.763 206.067 289.555C206.293 289.343 206.563 289.237 206.878 289.237C207.193 289.237 207.461 289.343 207.683 289.555C207.909 289.763 208.021 290.014 208.021 290.305C208.021 290.6 207.909 290.854 207.683 291.066C207.461 291.275 207.193 291.379 206.878 291.379ZM211.746 289.818V300H209.628V289.818H211.746ZM214.681 300.129C214.353 300.129 214.071 300.013 213.836 299.781C213.604 299.546 213.488 299.264 213.488 298.936C213.488 298.611 213.604 298.333 213.836 298.101C214.071 297.869 214.353 297.753 214.681 297.753C214.999 297.753 215.277 297.869 215.516 298.101C215.755 298.333 215.874 298.611 215.874 298.936C215.874 299.155 215.818 299.355 215.705 299.538C215.596 299.717 215.451 299.861 215.272 299.97C215.093 300.076 214.896 300.129 214.681 300.129ZM221.063 300.149C220.281 300.149 219.608 299.983 219.045 299.652C218.484 299.317 218.054 298.853 217.752 298.26C217.454 297.667 217.305 296.984 217.305 296.212C217.305 295.429 217.455 294.743 217.757 294.153C218.062 293.56 218.494 293.098 219.055 292.766C219.615 292.432 220.281 292.264 221.053 292.264C221.719 292.264 222.303 292.385 222.803 292.627C223.304 292.869 223.7 293.209 223.991 293.646C224.283 294.084 224.444 294.598 224.474 295.188H222.475C222.419 294.806 222.269 294.5 222.028 294.268C221.789 294.032 221.476 293.915 221.088 293.915C220.76 293.915 220.473 294.004 220.228 294.183C219.986 294.359 219.797 294.616 219.661 294.954C219.525 295.292 219.457 295.701 219.457 296.182C219.457 296.669 219.523 297.083 219.656 297.425C219.792 297.766 219.983 298.026 220.228 298.205C220.473 298.384 220.76 298.474 221.088 298.474C221.33 298.474 221.547 298.424 221.739 298.325C221.935 298.225 222.095 298.081 222.221 297.892C222.351 297.7 222.435 297.469 222.475 297.201H224.474C224.44 297.784 224.281 298.298 223.996 298.742C223.715 299.183 223.325 299.528 222.828 299.776C222.331 300.025 221.742 300.149 221.063 300.149ZM229.28 300.149C228.508 300.149 227.84 299.985 227.276 299.657C226.716 299.326 226.284 298.865 225.979 298.275C225.674 297.682 225.521 296.994 225.521 296.212C225.521 295.423 225.674 294.733 225.979 294.143C226.284 293.55 226.716 293.089 227.276 292.761C227.84 292.43 228.508 292.264 229.28 292.264C230.052 292.264 230.718 292.43 231.278 292.761C231.842 293.089 232.276 293.55 232.581 294.143C232.886 294.733 233.038 295.423 233.038 296.212C233.038 296.994 232.886 297.682 232.581 298.275C232.276 298.865 231.842 299.326 231.278 299.657C230.718 299.985 230.052 300.149 229.28 300.149ZM229.29 298.509C229.641 298.509 229.934 298.409 230.17 298.21C230.405 298.008 230.582 297.733 230.702 297.385C230.824 297.037 230.886 296.641 230.886 296.197C230.886 295.753 230.824 295.357 230.702 295.009C230.582 294.661 230.405 294.385 230.17 294.183C229.934 293.981 229.641 293.88 229.29 293.88C228.935 293.88 228.637 293.981 228.395 294.183C228.156 294.385 227.976 294.661 227.853 295.009C227.734 295.357 227.674 295.753 227.674 296.197C227.674 296.641 227.734 297.037 227.853 297.385C227.976 297.733 228.156 298.008 228.395 298.21C228.637 298.409 228.935 298.509 229.29 298.509ZM234.415 300V292.364H236.434V293.711H236.523C236.683 293.263 236.948 292.911 237.319 292.652C237.69 292.393 238.134 292.264 238.651 292.264C239.175 292.264 239.621 292.395 239.989 292.657C240.357 292.915 240.602 293.267 240.724 293.711H240.804C240.96 293.273 241.241 292.924 241.649 292.662C242.06 292.397 242.546 292.264 243.106 292.264C243.818 292.264 244.397 292.491 244.841 292.945C245.288 293.396 245.512 294.036 245.512 294.864V300H243.399V295.282C243.399 294.858 243.286 294.54 243.061 294.327C242.836 294.115 242.554 294.009 242.216 294.009C241.831 294.009 241.531 294.132 241.316 294.377C241.101 294.619 240.993 294.939 240.993 295.337V300H238.94V295.237C238.94 294.863 238.832 294.564 238.616 294.342C238.404 294.12 238.124 294.009 237.776 294.009C237.541 294.009 237.329 294.069 237.14 294.188C236.954 294.304 236.807 294.468 236.697 294.68C236.588 294.889 236.533 295.134 236.533 295.416V300H234.415Z" fill="white"/>
</svg>
