<svg width="343" height="382" viewBox="0 0 343 382" fill="none" xmlns="http://www.w3.org/2000/svg">
<rect width="342.222" height="382" fill="#006A86"/>
<path d="M114.146 174.663C111.662 174.663 109.347 174.264 107.2 173.467C105.084 172.639 103.244 171.474 101.68 169.971C100.116 168.468 98.8896 166.705 98.0003 164.681C97.1416 162.657 96.7123 160.434 96.7123 158.011C96.7123 155.588 97.1416 153.365 98.0003 151.341C98.8896 149.317 100.116 147.554 101.68 146.051C103.275 144.548 105.13 143.398 107.246 142.601C109.362 141.773 111.678 141.359 114.192 141.359C116.983 141.359 119.498 141.85 121.736 142.831C124.006 143.782 125.907 145.192 127.44 147.063L122.656 151.479C121.552 150.222 120.326 149.286 118.976 148.673C117.627 148.029 116.155 147.707 114.56 147.707C113.058 147.707 111.678 147.952 110.42 148.443C109.163 148.934 108.074 149.639 107.154 150.559C106.234 151.479 105.514 152.568 104.992 153.825C104.502 155.082 104.256 156.478 104.256 158.011C104.256 159.544 104.502 160.94 104.992 162.197C105.514 163.454 106.234 164.543 107.154 165.463C108.074 166.383 109.163 167.088 110.42 167.579C111.678 168.07 113.058 168.315 114.56 168.315C116.155 168.315 117.627 168.008 118.976 167.395C120.326 166.751 121.552 165.785 122.656 164.497L127.44 168.913C125.907 170.784 124.006 172.21 121.736 173.191C119.498 174.172 116.968 174.663 114.146 174.663ZM154.553 141.911H162.005V174.111H154.553V141.911ZM139.925 174.111H132.473V141.911H139.925V174.111ZM155.105 160.909H139.373V154.607H155.105V160.909ZM169.623 174.111V141.911H177.075V174.111H169.623ZM192.31 174.111L181.776 141.911H189.504L198.658 170.431H194.794L204.362 141.911H211.262L220.462 170.431H216.736L226.12 141.911H233.25L222.716 174.111H214.712L206.57 149.087H208.686L200.314 174.111H192.31ZM237.41 174.111V141.911H244.862V174.111H237.41ZM47.8754 224.111L62.2274 191.911H69.5874L83.9854 224.111H76.1654L64.3894 195.683H67.3334L55.5114 224.111H47.8754ZM55.0514 217.211L57.0294 211.553H73.5894L75.6134 217.211H55.0514ZM102.287 224.663C99.8029 224.663 97.4876 224.264 95.3409 223.467C93.2249 222.639 91.3849 221.474 89.8209 219.971C88.2569 218.468 87.0303 216.705 86.1409 214.681C85.2823 212.657 84.8529 210.434 84.8529 208.011C84.8529 205.588 85.2823 203.365 86.1409 201.341C87.0303 199.317 88.2569 197.554 89.8209 196.051C91.4156 194.548 93.2709 193.398 95.3869 192.601C97.5029 191.773 99.8183 191.359 102.333 191.359C105.124 191.359 107.638 191.85 109.877 192.831C112.146 193.782 114.048 195.192 115.581 197.063L110.797 201.479C109.693 200.222 108.466 199.286 107.117 198.673C105.768 198.029 104.296 197.707 102.701 197.707C101.198 197.707 99.8183 197.952 98.5609 198.443C97.3036 198.934 96.2149 199.639 95.2949 200.559C94.3749 201.479 93.6543 202.568 93.1329 203.825C92.6423 205.082 92.3969 206.478 92.3969 208.011C92.3969 209.544 92.6423 210.94 93.1329 212.197C93.6543 213.454 94.3749 214.543 95.2949 215.463C96.2149 216.383 97.3036 217.088 98.5609 217.579C99.8183 218.07 101.198 218.315 102.701 218.315C104.296 218.315 105.768 218.008 107.117 217.395C108.466 216.751 109.693 215.785 110.797 214.497L115.581 218.913C114.048 220.784 112.146 222.21 109.877 223.191C107.638 224.172 105.108 224.663 102.287 224.663ZM115.797 224.111L130.149 191.911H137.509L151.907 224.111H144.087L132.311 195.683H135.255L123.433 224.111H115.797ZM122.973 217.211L124.951 211.553H141.511L143.535 217.211H122.973ZM155.248 224.111V191.911H169.876C173.372 191.911 176.454 192.586 179.122 193.935C181.79 195.254 183.875 197.109 185.378 199.501C186.881 201.893 187.632 204.73 187.632 208.011C187.632 211.262 186.881 214.098 185.378 216.521C183.875 218.913 181.79 220.784 179.122 222.133C176.454 223.452 173.372 224.111 169.876 224.111H155.248ZM162.7 217.993H169.508C171.655 217.993 173.51 217.594 175.074 216.797C176.669 215.969 177.895 214.804 178.754 213.301C179.643 211.798 180.088 210.035 180.088 208.011C180.088 205.956 179.643 204.193 178.754 202.721C177.895 201.218 176.669 200.068 175.074 199.271C173.51 198.443 171.655 198.029 169.508 198.029H162.7V217.993ZM200.106 204.883H215.608V210.679H200.106V204.883ZM200.658 218.131H218.184V224.111H193.252V191.911H217.586V197.891H200.658V218.131ZM224.113 224.111V191.911H230.277L243.985 214.635H240.719L254.197 191.911H260.315L260.407 224.111H253.415L253.369 202.629H254.657L243.893 220.707H240.535L229.541 202.629H231.105V224.111H224.113ZM276.051 224.111V210.955L277.753 215.463L263.585 191.911H271.497L282.353 209.989H277.799L288.701 191.911H296.015L281.847 215.463L283.503 210.955V224.111H276.051Z" fill="#FF7509"/>
</svg>
