<svg width="343" height="382" viewBox="0 0 343 382" fill="none" xmlns="http://www.w3.org/2000/svg">
<rect x="0.422119" width="342.222" height="382" fill="white"/>
<path d="M50.8017 166.111C53.9017 166.111 56.585 166.628 58.8517 167.661C61.1517 168.694 62.9183 170.161 64.1517 172.061C65.385 173.961 66.0017 176.211 66.0017 178.811C66.0017 181.378 65.385 183.628 64.1517 185.561C62.9183 187.461 61.1517 188.928 58.8517 189.961C56.585 190.961 53.9017 191.461 50.8017 191.461H43.7517V201.111H35.6517V166.111H50.8017ZM50.3517 184.861C52.785 184.861 54.635 184.344 55.9017 183.311C57.1683 182.244 57.8017 180.744 57.8017 178.811C57.8017 176.844 57.1683 175.344 55.9017 174.311C54.635 173.244 52.785 172.711 50.3517 172.711H43.7517V184.861H50.3517ZM103.884 166.111V201.111H95.7845V186.761H79.8845V201.111H71.7845V166.111H79.8845V179.911H95.7845V166.111H103.884ZM127.315 166.111C130.415 166.111 133.099 166.628 135.365 167.661C137.665 168.694 139.432 170.161 140.665 172.061C141.899 173.961 142.515 176.211 142.515 178.811C142.515 181.378 141.899 183.628 140.665 185.561C139.432 187.461 137.665 188.928 135.365 189.961C133.099 190.961 130.415 191.461 127.315 191.461H120.265V201.111H112.165V166.111H127.315ZM126.865 184.861C129.299 184.861 131.149 184.344 132.415 183.311C133.682 182.244 134.315 180.744 134.315 178.811C134.315 176.844 133.682 175.344 132.415 174.311C131.149 173.244 129.299 172.711 126.865 172.711H120.265V184.861H126.865Z" fill="#147CF8"/>
<path d="M179.697 201.711C176.13 201.711 172.897 200.944 169.997 199.411C167.13 197.844 164.863 195.694 163.197 192.961C161.563 190.194 160.747 187.078 160.747 183.611C160.747 180.144 161.563 177.044 163.197 174.311C164.863 171.544 167.13 169.394 169.997 167.861C172.897 166.294 176.147 165.511 179.747 165.511C182.78 165.511 185.513 166.044 187.947 167.111C190.413 168.178 192.48 169.711 194.147 171.711L188.947 176.511C186.58 173.778 183.647 172.411 180.147 172.411C177.98 172.411 176.047 172.894 174.347 173.861C172.647 174.794 171.313 176.111 170.347 177.811C169.413 179.511 168.947 181.444 168.947 183.611C168.947 185.778 169.413 187.711 170.347 189.411C171.313 191.111 172.647 192.444 174.347 193.411C176.047 194.344 177.98 194.811 180.147 194.811C183.647 194.811 186.58 193.428 188.947 190.661L194.147 195.461C192.48 197.494 190.413 199.044 187.947 200.111C185.48 201.178 182.73 201.711 179.697 201.711ZM221.917 201.111L215.167 191.361H214.767H207.717V201.111H199.617V166.111H214.767C217.867 166.111 220.55 166.628 222.817 167.661C225.117 168.694 226.883 170.161 228.117 172.061C229.35 173.961 229.967 176.211 229.967 178.811C229.967 181.411 229.333 183.661 228.067 185.561C226.833 187.428 225.067 188.861 222.767 189.861L230.617 201.111H221.917ZM221.767 178.811C221.767 176.844 221.133 175.344 219.867 174.311C218.6 173.244 216.75 172.711 214.317 172.711H207.717V184.911H214.317C216.75 184.911 218.6 184.378 219.867 183.311C221.133 182.244 221.767 180.744 221.767 178.811ZM251.934 201.711C246.934 201.711 243.034 200.328 240.234 197.561C237.467 194.794 236.084 190.844 236.084 185.711V166.111H244.184V185.411C244.184 191.678 246.784 194.811 251.984 194.811C254.517 194.811 256.451 194.061 257.784 192.561C259.117 191.028 259.784 188.644 259.784 185.411V166.111H267.784V185.711C267.784 190.844 266.384 194.794 263.584 197.561C260.817 200.328 256.934 201.711 251.934 201.711ZM275.788 166.111H291.688C295.488 166.111 298.838 166.844 301.738 168.311C304.672 169.744 306.938 171.778 308.538 174.411C310.172 177.044 310.988 180.111 310.988 183.611C310.988 187.111 310.172 190.178 308.538 192.811C306.938 195.444 304.672 197.494 301.738 198.961C298.838 200.394 295.488 201.111 291.688 201.111H275.788V166.111ZM291.288 194.461C294.788 194.461 297.572 193.494 299.638 191.561C301.738 189.594 302.788 186.944 302.788 183.611C302.788 180.278 301.738 177.644 299.638 175.711C297.572 173.744 294.788 172.761 291.288 172.761H283.888V194.461H291.288Z" fill="#F90808"/>
</svg>
