<svg width="343" height="382" viewBox="0 0 343 382" fill="none" xmlns="http://www.w3.org/2000/svg">
<rect x="0.71106" width="342.222" height="382" fill="black"/>
<path d="M54.0314 141.111H62.1314V176.111H54.0314V141.111ZM102.288 176.111L102.238 155.111L91.9377 172.411H88.2877L78.0377 155.561V176.111H70.4377V141.111H77.1377L90.2377 162.861L103.138 141.111H109.788L109.888 176.111H102.288ZM133.342 141.111C136.442 141.111 139.125 141.628 141.392 142.661C143.692 143.694 145.458 145.161 146.692 147.061C147.925 148.961 148.542 151.211 148.542 153.811C148.542 156.378 147.925 158.628 146.692 160.561C145.458 162.461 143.692 163.928 141.392 164.961C139.125 165.961 136.442 166.461 133.342 166.461H126.292V176.111H118.192V141.111H133.342ZM132.892 159.861C135.325 159.861 137.175 159.344 138.442 158.311C139.708 157.244 140.342 155.744 140.342 153.811C140.342 151.844 139.708 150.344 138.442 149.311C137.175 148.244 135.325 147.711 132.892 147.711H126.292V159.861H132.892ZM175.617 168.611H159.367L156.267 176.111H147.967L163.567 141.111H171.567L187.217 176.111H178.717L175.617 168.611ZM173.067 162.461L167.517 149.061L161.967 162.461H173.067ZM207.11 176.711C203.543 176.711 200.31 175.944 197.41 174.411C194.543 172.844 192.276 170.694 190.61 167.961C188.976 165.194 188.16 162.078 188.16 158.611C188.16 155.144 188.976 152.044 190.61 149.311C192.276 146.544 194.543 144.394 197.41 142.861C200.31 141.294 203.56 140.511 207.16 140.511C210.193 140.511 212.926 141.044 215.36 142.111C217.826 143.178 219.893 144.711 221.56 146.711L216.36 151.511C213.993 148.778 211.06 147.411 207.56 147.411C205.393 147.411 203.46 147.894 201.76 148.861C200.06 149.794 198.726 151.111 197.76 152.811C196.826 154.511 196.36 156.444 196.36 158.611C196.36 160.778 196.826 162.711 197.76 164.411C198.726 166.111 200.06 167.444 201.76 168.411C203.46 169.344 205.393 169.811 207.56 169.811C211.06 169.811 213.993 168.428 216.36 165.661L221.56 170.461C219.893 172.494 217.826 174.044 215.36 175.111C212.893 176.178 210.143 176.711 207.11 176.711ZM233.938 147.711H222.738V141.111H253.238V147.711H242.038V176.111H233.938V147.711ZM274.058 176.711C270.424 176.711 267.141 175.928 264.208 174.361C261.308 172.794 259.024 170.644 257.358 167.911C255.724 165.144 254.908 162.044 254.908 158.611C254.908 155.178 255.724 152.094 257.358 149.361C259.024 146.594 261.308 144.428 264.208 142.861C267.141 141.294 270.424 140.511 274.058 140.511C277.691 140.511 280.958 141.294 283.858 142.861C286.758 144.428 289.041 146.594 290.708 149.361C292.374 152.094 293.208 155.178 293.208 158.611C293.208 162.044 292.374 165.144 290.708 167.911C289.041 170.644 286.758 172.794 283.858 174.361C280.958 175.928 277.691 176.711 274.058 176.711ZM274.058 169.811C276.124 169.811 277.991 169.344 279.658 168.411C281.324 167.444 282.624 166.111 283.558 164.411C284.524 162.711 285.008 160.778 285.008 158.611C285.008 156.444 284.524 154.511 283.558 152.811C282.624 151.111 281.324 149.794 279.658 148.861C277.991 147.894 276.124 147.411 274.058 147.411C271.991 147.411 270.124 147.894 268.458 148.861C266.791 149.794 265.474 151.111 264.508 152.811C263.574 154.511 263.108 156.444 263.108 158.611C263.108 160.778 263.574 162.711 264.508 164.411C265.474 166.111 266.791 167.444 268.458 168.411C270.124 169.344 271.991 169.811 274.058 169.811ZM72.881 226.711C69.3144 226.711 66.081 225.944 63.181 224.411C60.3144 222.844 58.0477 220.694 56.381 217.961C54.7477 215.194 53.931 212.078 53.931 208.611C53.931 205.144 54.7477 202.044 56.381 199.311C58.0477 196.544 60.3144 194.394 63.181 192.861C66.081 191.294 69.331 190.511 72.9311 190.511C75.9644 190.511 78.6977 191.044 81.131 192.111C83.5977 193.178 85.6644 194.711 87.331 196.711L82.1311 201.511C79.7644 198.778 76.831 197.411 73.331 197.411C71.1644 197.411 69.231 197.894 67.531 198.861C65.831 199.794 64.4977 201.111 63.531 202.811C62.5977 204.511 62.131 206.444 62.131 208.611C62.131 210.778 62.5977 212.711 63.531 214.411C64.4977 216.111 65.831 217.444 67.531 218.411C69.231 219.344 71.1644 219.811 73.331 219.811C76.831 219.811 79.7644 218.428 82.1311 215.661L87.331 220.461C85.6644 222.494 83.5977 224.044 81.131 225.111C78.6644 226.178 75.9144 226.711 72.881 226.711ZM109.019 226.711C105.385 226.711 102.102 225.928 99.1685 224.361C96.2685 222.794 93.9852 220.644 92.3185 217.911C90.6852 215.144 89.8685 212.044 89.8685 208.611C89.8685 205.178 90.6852 202.094 92.3185 199.361C93.9852 196.594 96.2685 194.428 99.1685 192.861C102.102 191.294 105.385 190.511 109.019 190.511C112.652 190.511 115.919 191.294 118.819 192.861C121.719 194.428 124.002 196.594 125.669 199.361C127.335 202.094 128.169 205.178 128.169 208.611C128.169 212.044 127.335 215.144 125.669 217.911C124.002 220.644 121.719 222.794 118.819 224.361C115.919 225.928 112.652 226.711 109.019 226.711ZM109.019 219.811C111.085 219.811 112.952 219.344 114.619 218.411C116.285 217.444 117.585 216.111 118.519 214.411C119.485 212.711 119.969 210.778 119.969 208.611C119.969 206.444 119.485 204.511 118.519 202.811C117.585 201.111 116.285 199.794 114.619 198.861C112.952 197.894 111.085 197.411 109.019 197.411C106.952 197.411 105.085 197.894 103.419 198.861C101.752 199.794 100.435 201.111 99.4685 202.811C98.5352 204.511 98.0685 206.444 98.0685 208.611C98.0685 210.778 98.5352 212.711 99.4685 214.411C100.435 216.111 101.752 217.444 103.419 218.411C105.085 219.344 106.952 219.811 109.019 219.811ZM166.734 191.111L151.584 226.111H143.584L128.484 191.111H137.234L147.884 216.111L158.684 191.111H166.734ZM169.656 191.111H177.756V226.111H169.656V191.111ZM186.063 191.111H201.963C205.763 191.111 209.113 191.844 212.013 193.311C214.946 194.744 217.213 196.778 218.813 199.411C220.446 202.044 221.263 205.111 221.263 208.611C221.263 212.111 220.446 215.178 218.813 217.811C217.213 220.444 214.946 222.494 212.013 223.961C209.113 225.394 205.763 226.111 201.963 226.111H186.063V191.111ZM201.563 219.461C205.063 219.461 207.846 218.494 209.913 216.561C212.013 214.594 213.063 211.944 213.063 208.611C213.063 205.278 212.013 202.644 209.913 200.711C207.846 198.744 205.063 197.761 201.563 197.761H194.163V219.461H201.563ZM226.017 208.911H240.167V215.161H226.017V208.911ZM257.079 191.111V226.111H248.979V197.611H241.979V191.111H257.079ZM275.46 190.511C280.36 190.511 284.193 192.011 286.96 195.011C289.726 197.978 291.11 202.261 291.11 207.861C291.11 211.828 290.36 215.228 288.86 218.061C287.393 220.894 285.31 223.044 282.61 224.511C279.91 225.978 276.793 226.711 273.26 226.711C271.393 226.711 269.61 226.511 267.91 226.111C266.21 225.678 264.76 225.078 263.56 224.311L266.56 218.361C268.26 219.528 270.443 220.111 273.11 220.111C276.076 220.111 278.426 219.244 280.16 217.511C281.893 215.744 282.826 213.211 282.96 209.911C280.86 212.011 277.96 213.061 274.26 213.061C272.026 213.061 269.993 212.611 268.16 211.711C266.326 210.811 264.876 209.544 263.81 207.911C262.743 206.244 262.21 204.328 262.21 202.161C262.21 199.828 262.793 197.778 263.96 196.011C265.126 194.244 266.71 192.894 268.71 191.961C270.743 190.994 272.993 190.511 275.46 190.511ZM276.06 207.011C277.826 207.011 279.26 206.528 280.36 205.561C281.493 204.561 282.06 203.294 282.06 201.761C282.06 200.228 281.51 198.978 280.41 198.011C279.343 197.044 277.86 196.561 275.96 196.561C274.226 196.561 272.81 197.028 271.71 197.961C270.643 198.894 270.11 200.161 270.11 201.761C270.11 203.361 270.643 204.644 271.71 205.611C272.81 206.544 274.26 207.011 276.06 207.011Z" fill="#34EA31"/>
</svg>
