<svg width="885" height="180" viewBox="0 0 885 180" fill="none" xmlns="http://www.w3.org/2000/svg">
<path d="M0.462981 110.076V84.3887L103.213 39.1434V68.6988L32.8644 96.9406L33.8131 95.4081V99.0569L32.8644 97.5244L103.213 125.766V155.322L0.462981 110.076ZM199.177 0.538996L151.013 179.477H124.231L172.395 0.538996H199.177Z" fill="#A4161A"/>
<path d="M346.607 59.8687H314.644C314.06 55.7333 312.868 52.0602 311.068 48.8493C309.268 45.5896 306.957 42.8166 304.135 40.53C301.313 38.2434 298.054 36.4919 294.356 35.2757C290.708 34.0594 286.743 33.4513 282.461 33.4513C274.726 33.4513 267.988 35.373 262.247 39.2164C256.506 43.0112 252.055 48.5573 248.892 55.855C245.73 63.1039 244.149 71.9097 244.149 82.2724C244.149 92.9269 245.73 101.879 248.892 109.128C252.103 116.377 256.579 121.85 262.32 125.547C268.061 129.245 274.701 131.093 282.242 131.093C286.475 131.093 290.391 130.534 293.992 129.415C297.64 128.296 300.876 126.666 303.697 124.526C306.519 122.336 308.854 119.685 310.703 116.571C312.6 113.458 313.914 109.906 314.644 105.917L346.607 106.063C345.78 112.922 343.713 119.539 340.404 125.912C337.145 132.237 332.742 137.905 327.196 142.916C321.698 147.878 315.13 151.819 307.492 154.738C299.903 157.608 291.316 159.043 281.732 159.043C268.401 159.043 256.482 156.027 245.973 149.994C235.513 143.962 227.243 135.229 221.161 123.796C215.129 112.363 212.112 98.5217 212.112 82.2724C212.112 65.9743 215.177 52.1089 221.307 40.6759C227.437 29.243 235.757 20.5345 246.265 14.5504C256.774 8.51773 268.596 5.50138 281.732 5.50138C290.391 5.50138 298.419 6.71765 305.814 9.15019C313.257 11.5827 319.849 15.1342 325.59 19.8047C331.331 24.4265 336.002 30.0944 339.602 36.8082C343.25 43.522 345.586 51.2088 346.607 59.8687ZM429.107 7.54472H460.341V111.755C460.341 121.388 458.176 129.756 453.846 136.859C449.565 143.962 443.605 149.435 435.967 153.278C428.329 157.122 419.45 159.043 409.33 159.043C400.33 159.043 392.157 157.462 384.81 154.3C377.513 151.089 371.723 146.224 367.442 139.705C363.161 133.137 361.045 124.89 361.093 114.966H392.546C392.643 118.906 393.446 122.288 394.954 125.109C396.511 127.882 398.627 130.023 401.303 131.531C404.028 132.991 407.238 133.721 410.936 133.721C414.828 133.721 418.112 132.894 420.788 131.239C423.512 129.537 425.58 127.055 426.991 123.796C428.402 120.536 429.107 116.523 429.107 111.755V7.54472ZM486.466 157V7.54472H545.431C556.718 7.54472 566.351 9.56373 574.33 13.6017C582.357 17.5911 588.463 23.2589 592.647 30.6052C596.879 37.9028 598.996 46.4897 598.996 56.3658C598.996 66.2906 596.855 74.8288 592.574 81.9805C588.292 89.0835 582.089 94.5324 573.965 98.3271C565.889 102.122 556.11 104.019 544.628 104.019H505.148V78.6235H539.52C545.553 78.6235 550.564 77.7965 554.553 76.1424C558.542 74.4882 561.51 72.007 563.456 68.6988C565.451 65.3905 566.448 61.2795 566.448 56.3658C566.448 51.4034 565.451 47.2195 563.456 43.8139C561.51 40.4083 558.518 37.8298 554.48 36.0784C550.491 34.2783 545.455 33.3783 539.374 33.3783H518.065V157H486.466ZM567.178 88.9862L604.323 157H569.44L533.098 88.9862H567.178ZM753.194 59.8687H721.231C720.647 55.7333 719.455 52.0602 717.655 48.8493C715.855 45.5896 713.544 42.8166 710.722 40.53C707.9 38.2434 704.641 36.4919 700.943 35.2757C697.295 34.0594 693.33 33.4513 689.048 33.4513C681.313 33.4513 674.575 35.373 668.834 39.2164C663.093 43.0112 658.641 48.5573 655.479 55.855C652.317 63.1039 650.736 71.9097 650.736 82.2724C650.736 92.9269 652.317 101.879 655.479 109.128C658.69 116.377 663.166 121.85 668.907 125.547C674.648 129.245 681.288 131.093 688.829 131.093C693.062 131.093 696.978 130.534 700.578 129.415C704.227 128.296 707.463 126.666 710.284 124.526C713.106 122.336 715.441 119.685 717.29 116.571C719.187 113.458 720.501 109.906 721.231 105.917L753.194 106.063C752.367 112.922 750.3 119.539 746.991 125.912C743.732 132.237 739.329 137.905 733.783 142.916C728.285 147.878 721.717 151.819 714.079 154.738C706.49 157.608 697.903 159.043 688.318 159.043C674.988 159.043 663.069 156.027 652.56 149.994C642.1 143.962 633.83 135.229 627.748 123.796C621.716 112.363 618.699 98.5217 618.699 82.2724C618.699 65.9743 621.764 52.1089 627.894 40.6759C634.024 29.243 642.343 20.5345 652.852 14.5504C663.361 8.51773 675.183 5.50138 688.318 5.50138C696.978 5.50138 705.006 6.71765 712.401 9.15019C719.844 11.5827 726.436 15.1342 732.177 19.8047C737.918 24.4265 742.588 30.0944 746.189 36.8082C749.837 43.522 752.173 51.2088 753.194 59.8687Z" fill="white"/>
<path d="M884.077 110.076L781.327 155.322V125.766L851.676 97.5244L850.727 99.0569V95.4081L851.676 96.9406L781.327 68.6988V39.1434L884.077 84.3887V110.076Z" fill="#A41614"/>
</svg>
