<svg width="343" height="382" viewBox="0 0 343 382" fill="none" xmlns="http://www.w3.org/2000/svg">
<rect x="0.0665283" width="342.222" height="382" fill="#A76CBF"/>
<path d="M89.3385 187.901L89.2885 166.901L78.9885 184.201H75.3385L65.0885 167.351V187.901H57.4885V152.901H64.1885L77.2885 174.651L90.1885 152.901H96.8385L96.9385 187.901H89.3385ZM132.342 181.401V187.901H105.242V152.901H131.692V159.401H113.292V167.001H129.542V173.301H113.292V181.401H132.342ZM170.887 152.901V187.901H164.237L146.787 166.651V187.901H138.787V152.901H145.487L162.887 174.151V152.901H170.887ZM186.418 159.501H175.218V152.901H205.718V159.501H194.518V187.901H186.418V159.501ZM231.369 180.401H215.119L212.019 187.901H203.719L219.319 152.901H227.319L242.969 187.901H234.469L231.369 180.401ZM228.819 174.251L223.269 160.851L217.719 174.251H228.819ZM277.56 175.501V187.901H269.46V175.401L255.91 152.901H264.51L273.86 168.451L283.21 152.901H291.16L277.56 175.501ZM96.5096 202.901L81.3596 237.901H73.3596L58.2596 202.901H67.0096L77.6596 227.901L88.4596 202.901H96.5096ZM99.4318 202.901H107.532V237.901H99.4318V202.901ZM132.788 238.501C129.155 238.501 125.871 237.718 122.938 236.151C120.038 234.585 117.755 232.435 116.088 229.701C114.455 226.935 113.638 223.835 113.638 220.401C113.638 216.968 114.455 213.885 116.088 211.151C117.755 208.385 120.038 206.218 122.938 204.651C125.871 203.085 129.155 202.301 132.788 202.301C136.421 202.301 139.688 203.085 142.588 204.651C145.488 206.218 147.771 208.385 149.438 211.151C151.105 213.885 151.938 216.968 151.938 220.401C151.938 223.835 151.105 226.935 149.438 229.701C147.771 232.435 145.488 234.585 142.588 236.151C139.688 237.718 136.421 238.501 132.788 238.501ZM132.788 231.601C134.855 231.601 136.721 231.135 138.388 230.201C140.055 229.235 141.355 227.901 142.288 226.201C143.255 224.501 143.738 222.568 143.738 220.401C143.738 218.235 143.255 216.301 142.288 214.601C141.355 212.901 140.055 211.585 138.388 210.651C136.721 209.685 134.855 209.201 132.788 209.201C130.721 209.201 128.855 209.685 127.188 210.651C125.521 211.585 124.205 212.901 123.238 214.601C122.305 216.301 121.838 218.235 121.838 220.401C121.838 222.568 122.305 224.501 123.238 226.201C124.205 227.901 125.521 229.235 127.188 230.201C128.855 231.135 130.721 231.601 132.788 231.601ZM158.026 202.901H166.126V231.301H183.676V237.901H158.026V202.901ZM215.301 231.401V237.901H188.201V202.901H214.651V209.401H196.251V217.001H212.501V223.301H196.251V231.401H215.301ZM228.996 209.501H217.796V202.901H248.296V209.501H237.096V237.901H228.996V209.501ZM273.947 230.401H257.697L254.597 237.901H246.297L261.897 202.901H269.897L285.547 237.901H277.047L273.947 230.401ZM271.397 224.251L265.847 210.851L260.297 224.251H271.397Z" fill="#D2F4E7"/>
</svg>
