<svg width="343" height="382" viewBox="0 0 343 382" fill="none" xmlns="http://www.w3.org/2000/svg">
<rect x="0.77771" width="342.222" height="382" fill="white"/>
<path d="M44.4047 147.711H33.2047V141.111H63.7047V147.711H52.5047V176.111H44.4047V147.711ZM84.5247 176.711C80.8913 176.711 77.608 175.928 74.6747 174.361C71.7747 172.794 69.4913 170.644 67.8247 167.911C66.1913 165.144 65.3747 162.044 65.3747 158.611C65.3747 155.178 66.1913 152.094 67.8247 149.361C69.4913 146.594 71.7747 144.428 74.6747 142.861C77.608 141.294 80.8913 140.511 84.5247 140.511C88.158 140.511 91.4247 141.294 94.3247 142.861C97.2247 144.428 99.508 146.594 101.175 149.361C102.841 152.094 103.675 155.178 103.675 158.611C103.675 162.044 102.841 165.144 101.175 167.911C99.508 170.644 97.2247 172.794 94.3247 174.361C91.4247 175.928 88.158 176.711 84.5247 176.711ZM84.5247 169.811C86.5913 169.811 88.458 169.344 90.1247 168.411C91.7913 167.444 93.0913 166.111 94.0247 164.411C94.9913 162.711 95.4747 160.778 95.4747 158.611C95.4747 156.444 94.9913 154.511 94.0247 152.811C93.0913 151.111 91.7913 149.794 90.1247 148.861C88.458 147.894 86.5913 147.411 84.5247 147.411C82.458 147.411 80.5913 147.894 78.9247 148.861C77.258 149.794 75.9413 151.111 74.9747 152.811C74.0413 154.511 73.5747 156.444 73.5747 158.611C73.5747 160.778 74.0413 162.711 74.9747 164.411C75.9413 166.111 77.258 167.444 78.9247 168.411C80.5913 169.344 82.458 169.811 84.5247 169.811ZM109.762 141.111H125.662C129.462 141.111 132.812 141.844 135.712 143.311C138.645 144.744 140.912 146.778 142.512 149.411C144.145 152.044 144.962 155.111 144.962 158.611C144.962 162.111 144.145 165.178 142.512 167.811C140.912 170.444 138.645 172.494 135.712 173.961C132.812 175.394 129.462 176.111 125.662 176.111H109.762V141.111ZM125.262 169.461C128.762 169.461 131.545 168.494 133.612 166.561C135.712 164.594 136.762 161.944 136.762 158.611C136.762 155.278 135.712 152.644 133.612 150.711C131.545 148.744 128.762 147.761 125.262 147.761H117.862V169.461H125.262ZM168.021 176.711C164.387 176.711 161.104 175.928 158.171 174.361C155.271 172.794 152.987 170.644 151.321 167.911C149.687 165.144 148.871 162.044 148.871 158.611C148.871 155.178 149.687 152.094 151.321 149.361C152.987 146.594 155.271 144.428 158.171 142.861C161.104 141.294 164.387 140.511 168.021 140.511C171.654 140.511 174.921 141.294 177.821 142.861C180.721 144.428 183.004 146.594 184.671 149.361C186.337 152.094 187.171 155.178 187.171 158.611C187.171 162.044 186.337 165.144 184.671 167.911C183.004 170.644 180.721 172.794 177.821 174.361C174.921 175.928 171.654 176.711 168.021 176.711ZM168.021 169.811C170.087 169.811 171.954 169.344 173.621 168.411C175.287 167.444 176.587 166.111 177.521 164.411C178.487 162.711 178.971 160.778 178.971 158.611C178.971 156.444 178.487 154.511 177.521 152.811C176.587 151.111 175.287 149.794 173.621 148.861C171.954 147.894 170.087 147.411 168.021 147.411C165.954 147.411 164.087 147.894 162.421 148.861C160.754 149.794 159.437 151.111 158.471 152.811C157.537 154.511 157.071 156.444 157.071 158.611C157.071 160.778 157.537 162.711 158.471 164.411C159.437 166.111 160.754 167.444 162.421 168.411C164.087 169.344 165.954 169.811 168.021 169.811ZM207.418 141.111H215.518V169.511H233.068V176.111H207.418V141.111ZM237.594 141.111H245.694V176.111H237.594V141.111ZM265.5 176.711C262.734 176.711 260.05 176.344 257.45 175.611C254.884 174.844 252.817 173.861 251.25 172.661L254 166.561C255.5 167.661 257.284 168.544 259.35 169.211C261.417 169.878 263.484 170.211 265.55 170.211C267.85 170.211 269.55 169.878 270.65 169.211C271.75 168.511 272.3 167.594 272.3 166.461C272.3 165.628 271.967 164.944 271.3 164.411C270.667 163.844 269.834 163.394 268.8 163.061C267.8 162.728 266.434 162.361 264.7 161.961C262.034 161.328 259.85 160.694 258.15 160.061C256.45 159.428 254.984 158.411 253.75 157.011C252.55 155.611 251.95 153.744 251.95 151.411C251.95 149.378 252.5 147.544 253.6 145.911C254.7 144.244 256.35 142.928 258.55 141.961C260.784 140.994 263.5 140.511 266.7 140.511C268.934 140.511 271.117 140.778 273.25 141.311C275.384 141.844 277.25 142.611 278.85 143.611L276.35 149.761C273.117 147.928 269.884 147.011 266.65 147.011C264.384 147.011 262.7 147.378 261.6 148.111C260.534 148.844 260 149.811 260 151.011C260 152.211 260.617 153.111 261.85 153.711C263.117 154.278 265.034 154.844 267.6 155.411C270.267 156.044 272.45 156.678 274.15 157.311C275.85 157.944 277.3 158.944 278.5 160.311C279.734 161.678 280.35 163.528 280.35 165.861C280.35 167.861 279.784 169.694 278.65 171.361C277.55 172.994 275.884 174.294 273.65 175.261C271.417 176.228 268.7 176.711 265.5 176.711ZM292.647 147.711H281.447V141.111H311.947V147.711H300.747V176.111H292.647V147.711ZM63.2674 226.111L63.2174 205.111L52.9174 222.411H49.2674L39.0174 205.561V226.111H31.4174V191.111H38.1174L51.2174 212.861L64.1174 191.111H70.7674L70.8674 226.111H63.2674ZM96.1213 226.711C92.488 226.711 89.2047 225.928 86.2713 224.361C83.3713 222.794 81.088 220.644 79.4213 217.911C77.788 215.144 76.9713 212.044 76.9713 208.611C76.9713 205.178 77.788 202.094 79.4213 199.361C81.088 196.594 83.3713 194.428 86.2713 192.861C89.2047 191.294 92.488 190.511 96.1213 190.511C99.7547 190.511 103.021 191.294 105.921 192.861C108.821 194.428 111.105 196.594 112.771 199.361C114.438 202.094 115.271 205.178 115.271 208.611C115.271 212.044 114.438 215.144 112.771 217.911C111.105 220.644 108.821 222.794 105.921 224.361C103.021 225.928 99.7547 226.711 96.1213 226.711ZM96.1213 219.811C98.188 219.811 100.055 219.344 101.721 218.411C103.388 217.444 104.688 216.111 105.621 214.411C106.588 212.711 107.071 210.778 107.071 208.611C107.071 206.444 106.588 204.511 105.621 202.811C104.688 201.111 103.388 199.794 101.721 198.861C100.055 197.894 98.188 197.411 96.1213 197.411C94.0547 197.411 92.188 197.894 90.5213 198.861C88.8547 199.794 87.538 201.111 86.5713 202.811C85.638 204.511 85.1713 206.444 85.1713 208.611C85.1713 210.778 85.638 212.711 86.5713 214.411C87.538 216.111 88.8547 217.444 90.5213 218.411C92.188 219.344 94.0547 219.811 96.1213 219.811ZM153.459 191.111V226.111H146.809L129.359 204.861V226.111H121.359V191.111H128.059L145.459 212.361V191.111H153.459ZM185.39 208.061H192.79V222.261C190.89 223.694 188.69 224.794 186.19 225.561C183.69 226.328 181.173 226.711 178.64 226.711C175.006 226.711 171.74 225.944 168.84 224.411C165.94 222.844 163.656 220.694 161.99 217.961C160.356 215.194 159.54 212.078 159.54 208.611C159.54 205.144 160.356 202.044 161.99 199.311C163.656 196.544 165.956 194.394 168.89 192.861C171.823 191.294 175.123 190.511 178.79 190.511C181.856 190.511 184.64 191.028 187.14 192.061C189.64 193.094 191.74 194.594 193.44 196.561L188.24 201.361C185.74 198.728 182.723 197.411 179.19 197.411C176.956 197.411 174.973 197.878 173.24 198.811C171.506 199.744 170.156 201.061 169.19 202.761C168.223 204.461 167.74 206.411 167.74 208.611C167.74 210.778 168.223 212.711 169.19 214.411C170.156 216.111 171.49 217.444 173.19 218.411C174.923 219.344 176.89 219.811 179.09 219.811C181.423 219.811 183.523 219.311 185.39 218.311V208.061ZM217.264 226.711C213.631 226.711 210.347 225.928 207.414 224.361C204.514 222.794 202.231 220.644 200.564 217.911C198.931 215.144 198.114 212.044 198.114 208.611C198.114 205.178 198.931 202.094 200.564 199.361C202.231 196.594 204.514 194.428 207.414 192.861C210.347 191.294 213.631 190.511 217.264 190.511C220.897 190.511 224.164 191.294 227.064 192.861C229.964 194.428 232.247 196.594 233.914 199.361C235.581 202.094 236.414 205.178 236.414 208.611C236.414 212.044 235.581 215.144 233.914 217.911C232.247 220.644 229.964 222.794 227.064 224.361C224.164 225.928 220.897 226.711 217.264 226.711ZM217.264 219.811C219.331 219.811 221.197 219.344 222.864 218.411C224.531 217.444 225.831 216.111 226.764 214.411C227.731 212.711 228.214 210.778 228.214 208.611C228.214 206.444 227.731 204.511 226.764 202.811C225.831 201.111 224.531 199.794 222.864 198.861C221.197 197.894 219.331 197.411 217.264 197.411C215.197 197.411 213.331 197.894 211.664 198.861C209.997 199.794 208.681 201.111 207.714 202.811C206.781 204.511 206.314 206.444 206.314 208.611C206.314 210.778 206.781 212.711 207.714 214.411C208.681 216.111 209.997 217.444 211.664 218.411C213.331 219.344 215.197 219.811 217.264 219.811ZM242.501 191.111H258.401C262.201 191.111 265.551 191.844 268.451 193.311C271.385 194.744 273.651 196.778 275.251 199.411C276.885 202.044 277.701 205.111 277.701 208.611C277.701 212.111 276.885 215.178 275.251 217.811C273.651 220.444 271.385 222.494 268.451 223.961C265.551 225.394 262.201 226.111 258.401 226.111H242.501V191.111ZM258.001 219.461C261.501 219.461 264.285 218.494 266.351 216.561C268.451 214.594 269.501 211.944 269.501 208.611C269.501 205.278 268.451 202.644 266.351 200.711C264.285 198.744 261.501 197.761 258.001 197.761H250.601V219.461H258.001ZM309.51 207.911C311.51 208.544 313.077 209.611 314.21 211.111C315.343 212.578 315.91 214.394 315.91 216.561C315.91 219.628 314.71 221.994 312.31 223.661C309.943 225.294 306.477 226.111 301.91 226.111H283.81V191.111H300.91C305.177 191.111 308.443 191.928 310.71 193.561C313.01 195.194 314.16 197.411 314.16 200.211C314.16 201.911 313.743 203.428 312.91 204.761C312.11 206.094 310.977 207.144 309.51 207.911ZM291.86 197.211V205.461H299.91C301.91 205.461 303.427 205.111 304.46 204.411C305.493 203.711 306.01 202.678 306.01 201.311C306.01 199.944 305.493 198.928 304.46 198.261C303.427 197.561 301.91 197.211 299.91 197.211H291.86ZM301.31 220.011C303.443 220.011 305.043 219.661 306.11 218.961C307.21 218.261 307.76 217.178 307.76 215.711C307.76 212.811 305.61 211.361 301.31 211.361H291.86V220.011H301.31Z" fill="#17C23D"/>
</svg>
