<svg width="343" height="382" viewBox="0 0 343 382" fill="none" xmlns="http://www.w3.org/2000/svg">
<rect width="342.222" height="382" fill="white"/>
<path d="M99.2133 174.111V141.211H105.511L124.922 164.899H121.867V141.211H129.387V174.111H123.136L103.678 150.423H106.733V174.111H99.2133ZM144.174 154.465H160.013V160.387H144.174V154.465ZM144.738 168.001H162.645V174.111H137.171V141.211H162.034V147.321H144.738V168.001ZM176.141 174.111L165.378 141.211H173.274L182.627 170.351H178.679L188.455 141.211H195.505L204.905 170.351H201.098L210.686 141.211H217.971L207.208 174.111H199.03L190.711 148.543H192.873L184.319 174.111H176.141ZM233.031 174.675C230.399 174.675 227.877 174.33 225.464 173.641C223.051 172.92 221.109 171.996 219.636 170.868L222.221 165.134C223.631 166.137 225.292 166.967 227.203 167.625C229.146 168.252 231.104 168.565 233.078 168.565C234.582 168.565 235.788 168.424 236.697 168.142C237.637 167.829 238.326 167.406 238.765 166.873C239.204 166.34 239.423 165.729 239.423 165.04C239.423 164.163 239.078 163.473 238.389 162.972C237.7 162.439 236.791 162.016 235.663 161.703C234.535 161.358 233.282 161.045 231.903 160.763C230.556 160.45 229.193 160.074 227.814 159.635C226.467 159.196 225.229 158.632 224.101 157.943C222.973 157.254 222.049 156.345 221.328 155.217C220.639 154.089 220.294 152.648 220.294 150.893C220.294 149.013 220.795 147.305 221.798 145.77C222.832 144.203 224.367 142.966 226.404 142.057C228.472 141.117 231.057 140.647 234.159 140.647C236.227 140.647 238.264 140.898 240.269 141.399C242.274 141.869 244.045 142.59 245.58 143.561L243.23 149.342C241.695 148.465 240.159 147.822 238.624 147.415C237.089 146.976 235.585 146.757 234.112 146.757C232.639 146.757 231.433 146.929 230.493 147.274C229.553 147.619 228.879 148.073 228.472 148.637C228.065 149.17 227.861 149.796 227.861 150.517C227.861 151.363 228.206 152.052 228.895 152.585C229.584 153.086 230.493 153.494 231.621 153.807C232.749 154.12 233.987 154.434 235.334 154.747C236.713 155.06 238.076 155.421 239.423 155.828C240.802 156.235 242.055 156.784 243.183 157.473C244.311 158.162 245.22 159.071 245.909 160.199C246.63 161.327 246.99 162.753 246.99 164.476C246.99 166.325 246.473 168.017 245.439 169.552C244.405 171.087 242.854 172.325 240.786 173.265C238.749 174.205 236.164 174.675 233.031 174.675ZM53.4306 191.211H61.0446V224.111H53.4306V191.211ZM38.4846 224.111H30.8706V191.211H38.4846V224.111ZM53.9946 210.622H37.9206V204.183H53.9946V210.622ZM84.8086 224.675C82.2079 224.675 79.7952 224.252 77.5706 223.406C75.3772 222.56 73.4659 221.369 71.8366 219.834C70.2386 218.299 68.9852 216.497 68.0766 214.429C67.1992 212.361 66.7606 210.105 66.7606 207.661C66.7606 205.217 67.1992 202.961 68.0766 200.893C68.9852 198.825 70.2542 197.023 71.8836 195.488C73.5129 193.953 75.4242 192.762 77.6176 191.916C79.8109 191.07 82.1922 190.647 84.7616 190.647C87.3622 190.647 89.7436 191.07 91.9056 191.916C94.0989 192.762 95.9946 193.953 97.5926 195.488C99.2219 197.023 100.491 198.825 101.4 200.893C102.308 202.93 102.763 205.186 102.763 207.661C102.763 210.105 102.308 212.377 101.4 214.476C100.491 216.544 99.2219 218.346 97.5926 219.881C95.9946 221.385 94.0989 222.56 91.9056 223.406C89.7436 224.252 87.3779 224.675 84.8086 224.675ZM84.7616 218.189C86.2342 218.189 87.5816 217.938 88.8036 217.437C90.0569 216.936 91.1536 216.215 92.0936 215.275C93.0336 214.335 93.7542 213.223 94.2556 211.938C94.7882 210.653 95.0546 209.228 95.0546 207.661C95.0546 206.094 94.7882 204.669 94.2556 203.384C93.7542 202.099 93.0336 200.987 92.0936 200.047C91.1849 199.107 90.1039 198.386 88.8506 197.885C87.5972 197.384 86.2342 197.133 84.7616 197.133C83.2889 197.133 81.9259 197.384 80.6726 197.885C79.4506 198.386 78.3696 199.107 77.4296 200.047C76.4896 200.987 75.7532 202.099 75.2206 203.384C74.7192 204.669 74.4686 206.094 74.4686 207.661C74.4686 209.196 74.7192 210.622 75.2206 211.938C75.7532 213.223 76.4739 214.335 77.3826 215.275C78.3226 216.215 79.4192 216.936 80.6726 217.437C81.9259 217.938 83.2889 218.189 84.7616 218.189ZM108.485 224.111V191.211H114.783L128.789 214.429H125.452L139.223 191.211H145.474L145.568 224.111H138.424L138.377 202.162H139.693L128.695 220.633H125.264L114.031 202.162H115.629V224.111H108.485ZM160.377 204.465H176.216V210.387H160.377V204.465ZM160.941 218.001H178.848V224.111H153.374V191.211H178.237V197.321H160.941V218.001ZM184.906 224.111V191.211H199.147C202.092 191.211 204.63 191.697 206.761 192.668C208.891 193.608 210.536 194.971 211.696 196.757C212.855 198.543 213.435 200.674 213.435 203.149C213.435 205.593 212.855 207.708 211.696 209.494C210.536 211.28 208.891 212.659 206.761 213.63C204.63 214.57 202.092 215.04 199.147 215.04H189.136L192.52 211.609V224.111H184.906ZM192.52 212.455L189.136 208.836H198.724C201.074 208.836 202.828 208.335 203.988 207.332C205.147 206.329 205.727 204.935 205.727 203.149C205.727 201.332 205.147 199.922 203.988 198.919C202.828 197.916 201.074 197.415 198.724 197.415H189.136L192.52 193.796V212.455ZM212.894 224.111L227.558 191.211H235.078L249.789 224.111H241.799L229.767 195.065H232.775L220.696 224.111H212.894ZM220.226 217.061L222.247 211.28H239.167L241.235 217.061H220.226ZM268.63 224.675C266.029 224.675 263.632 224.268 261.439 223.453C259.277 222.607 257.381 221.416 255.752 219.881C254.154 218.346 252.9 216.544 251.992 214.476C251.114 212.408 250.676 210.136 250.676 207.661C250.676 205.186 251.114 202.914 251.992 200.846C252.9 198.778 254.169 196.976 255.799 195.441C257.428 193.906 259.339 192.731 261.533 191.916C263.726 191.07 266.139 190.647 268.771 190.647C271.685 190.647 274.301 191.133 276.62 192.104C278.97 193.075 280.944 194.485 282.542 196.334L277.654 200.846C276.463 199.593 275.163 198.668 273.753 198.073C272.343 197.446 270.807 197.133 269.147 197.133C267.549 197.133 266.092 197.384 264.776 197.885C263.46 198.386 262.316 199.107 261.345 200.047C260.405 200.987 259.668 202.099 259.136 203.384C258.634 204.669 258.384 206.094 258.384 207.661C258.384 209.196 258.634 210.606 259.136 211.891C259.668 213.176 260.405 214.304 261.345 215.275C262.316 216.215 263.444 216.936 264.729 217.437C266.045 217.938 267.486 218.189 269.053 218.189C270.557 218.189 272.014 217.954 273.424 217.484C274.865 216.983 276.259 216.152 277.607 214.993L281.931 220.492C280.145 221.839 278.061 222.873 275.68 223.594C273.33 224.315 270.98 224.675 268.63 224.675ZM274.975 219.505V207.144H281.931V220.492L274.975 219.505ZM296.006 204.465H311.845V210.387H296.006V204.465ZM296.57 218.001H314.477V224.111H289.003V191.211H313.866V197.321H296.57V218.001Z" fill="#FFD067"/>
</svg>
