<svg width="343" height="382" viewBox="0 0 343 382" fill="none" xmlns="http://www.w3.org/2000/svg">
<rect width="342.222" height="382" fill="white"/>
<path d="M83.3693 187.901L76.6193 178.151H76.2193H69.1693V187.901H61.0693V152.901H76.2193C79.3193 152.901 82.0026 153.418 84.2693 154.451C86.5693 155.485 88.336 156.951 89.5693 158.851C90.8026 160.751 91.4193 163.001 91.4193 165.601C91.4193 168.201 90.786 170.451 89.5193 172.351C88.286 174.218 86.5193 175.651 84.2193 176.651L92.0693 187.901H83.3693ZM83.2193 165.601C83.2193 163.635 82.586 162.135 81.3193 161.101C80.0526 160.035 78.2026 159.501 75.7693 159.501H69.1693V171.701H75.7693C78.2026 171.701 80.0526 171.168 81.3193 170.101C82.586 169.035 83.2193 167.535 83.2193 165.601ZM124.937 181.401V187.901H97.8369V152.901H124.287V159.401H105.887V167.001H122.137V173.301H105.887V181.401H124.937ZM146.532 152.901C149.632 152.901 152.315 153.418 154.582 154.451C156.882 155.485 158.648 156.951 159.882 158.851C161.115 160.751 161.732 163.001 161.732 165.601C161.732 168.168 161.115 170.418 159.882 172.351C158.648 174.251 156.882 175.718 154.582 176.751C152.315 177.751 149.632 178.251 146.532 178.251H139.482V187.901H131.382V152.901H146.532ZM146.082 171.651C148.515 171.651 150.365 171.135 151.632 170.101C152.898 169.035 153.532 167.535 153.532 165.601C153.532 163.635 152.898 162.135 151.632 161.101C150.365 160.035 148.515 159.501 146.082 159.501H139.482V171.651H146.082ZM167.515 152.901H175.615V181.301H193.165V187.901H167.515V152.901ZM197.69 152.901H205.79V187.901H197.69V152.901ZM230.847 188.501C227.28 188.501 224.047 187.735 221.147 186.201C218.28 184.635 216.013 182.485 214.347 179.751C212.713 176.985 211.897 173.868 211.897 170.401C211.897 166.935 212.713 163.835 214.347 161.101C216.013 158.335 218.28 156.185 221.147 154.651C224.047 153.085 227.297 152.301 230.897 152.301C233.93 152.301 236.663 152.835 239.097 153.901C241.563 154.968 243.63 156.501 245.297 158.501L240.097 163.301C237.73 160.568 234.797 159.201 231.297 159.201C229.13 159.201 227.197 159.685 225.497 160.651C223.797 161.585 222.463 162.901 221.497 164.601C220.563 166.301 220.097 168.235 220.097 170.401C220.097 172.568 220.563 174.501 221.497 176.201C222.463 177.901 223.797 179.235 225.497 180.201C227.197 181.135 229.13 181.601 231.297 181.601C234.797 181.601 237.73 180.218 240.097 177.451L245.297 182.251C243.63 184.285 241.563 185.835 239.097 186.901C236.63 187.968 233.88 188.501 230.847 188.501ZM273.133 180.401H256.883L253.783 187.901H245.483L261.083 152.901H269.083L284.733 187.901H276.233L273.133 180.401ZM270.583 174.251L265.033 160.851L259.483 174.251H270.583ZM163.017 202.901L151.567 237.901H142.867L135.167 214.201L127.217 237.901H118.567L107.067 202.901H115.467L123.367 227.501L131.617 202.901H139.117L147.117 227.701L155.267 202.901H163.017ZM194.639 231.401V237.901H167.539V202.901H193.989V209.401H175.589V217.001H191.839V223.301H175.589V231.401H194.639ZM226.784 219.701C228.784 220.335 230.351 221.401 231.484 222.901C232.617 224.368 233.184 226.185 233.184 228.351C233.184 231.418 231.984 233.785 229.584 235.451C227.217 237.085 223.751 237.901 219.184 237.901H201.084V202.901H218.184C222.451 202.901 225.717 203.718 227.984 205.351C230.284 206.985 231.434 209.201 231.434 212.001C231.434 213.701 231.017 215.218 230.184 216.551C229.384 217.885 228.251 218.935 226.784 219.701ZM209.134 209.001V217.251H217.184C219.184 217.251 220.701 216.901 221.734 216.201C222.767 215.501 223.284 214.468 223.284 213.101C223.284 211.735 222.767 210.718 221.734 210.051C220.701 209.351 219.184 209.001 217.184 209.001H209.134ZM218.584 231.801C220.717 231.801 222.317 231.451 223.384 230.751C224.484 230.051 225.034 228.968 225.034 227.501C225.034 224.601 222.884 223.151 218.584 223.151H209.134V231.801H218.584Z" fill="#A7399C"/>
</svg>
