<svg width="343" height="382" viewBox="0 0 343 382" fill="none" xmlns="http://www.w3.org/2000/svg">
<rect x="0.35553" width="342.222" height="382" fill="black"/>
<path d="M86.0382 136.96H79.3182V133H97.6182V136.96H90.8982V154H86.0382V136.96ZM110.11 154.36C107.93 154.36 105.96 153.89 104.2 152.95C102.46 152.01 101.09 150.72 100.09 149.08C99.1102 147.42 98.6202 145.56 98.6202 143.5C98.6202 141.44 99.1102 139.59 100.09 137.95C101.09 136.29 102.46 134.99 104.2 134.05C105.96 133.11 107.93 132.64 110.11 132.64C112.29 132.64 114.25 133.11 115.99 134.05C117.73 134.99 119.1 136.29 120.1 137.95C121.1 139.59 121.6 141.44 121.6 143.5C121.6 145.56 121.1 147.42 120.1 149.08C119.1 150.72 117.73 152.01 115.99 152.95C114.25 153.89 112.29 154.36 110.11 154.36ZM110.11 150.22C111.35 150.22 112.47 149.94 113.47 149.38C114.47 148.8 115.25 148 115.81 146.98C116.39 145.96 116.68 144.8 116.68 143.5C116.68 142.2 116.39 141.04 115.81 140.02C115.25 139 114.47 138.21 113.47 137.65C112.47 137.07 111.35 136.78 110.11 136.78C108.87 136.78 107.75 137.07 106.75 137.65C105.75 138.21 104.96 139 104.38 140.02C103.82 141.04 103.54 142.2 103.54 143.5C103.54 144.8 103.82 145.96 104.38 146.98C104.96 148 105.75 148.8 106.75 149.38C107.75 149.94 108.87 150.22 110.11 150.22ZM147.963 156.25C147.283 157.09 146.453 157.73 145.473 158.17C144.513 158.61 143.453 158.83 142.293 158.83C140.733 158.83 139.323 158.49 138.063 157.81C136.803 157.15 135.363 155.97 133.743 154.27C131.843 154.03 130.143 153.42 128.643 152.44C127.163 151.46 126.003 150.2 125.163 148.66C124.343 147.1 123.933 145.38 123.933 143.5C123.933 141.44 124.423 139.59 125.403 137.95C126.403 136.29 127.773 134.99 129.513 134.05C131.273 133.11 133.243 132.64 135.423 132.64C137.603 132.64 139.563 133.11 141.303 134.05C143.043 134.99 144.413 136.29 145.413 137.95C146.413 139.59 146.913 141.44 146.913 143.5C146.913 145.94 146.223 148.08 144.843 149.92C143.483 151.76 141.673 153.04 139.413 153.76C139.913 154.28 140.393 154.65 140.853 154.87C141.333 155.11 141.843 155.23 142.383 155.23C143.683 155.23 144.823 154.71 145.803 153.67L147.963 156.25ZM128.853 143.5C128.853 144.8 129.133 145.96 129.693 146.98C130.273 148 131.063 148.8 132.063 149.38C133.063 149.94 134.183 150.22 135.423 150.22C136.663 150.22 137.783 149.94 138.783 149.38C139.783 148.8 140.563 148 141.123 146.98C141.703 145.96 141.993 144.8 141.993 143.5C141.993 142.2 141.703 141.04 141.123 140.02C140.563 139 139.783 138.21 138.783 137.65C137.783 137.07 136.663 136.78 135.423 136.78C134.183 136.78 133.063 137.07 132.063 137.65C131.063 138.21 130.273 139 129.693 140.02C129.133 141.04 128.853 142.2 128.853 143.5ZM159.895 154.36C156.895 154.36 154.555 153.53 152.875 151.87C151.215 150.21 150.385 147.84 150.385 144.76V133H155.245V144.58C155.245 148.34 156.805 150.22 159.925 150.22C161.445 150.22 162.605 149.77 163.405 148.87C164.205 147.95 164.605 146.52 164.605 144.58V133H169.405V144.76C169.405 147.84 168.565 150.21 166.885 151.87C165.225 153.53 162.895 154.36 159.895 154.36ZM190.468 150.1V154H174.208V133H190.078V136.9H179.038V141.46H188.788V145.24H179.038V150.1H190.468ZM213.595 133V154H209.605L199.135 141.25V154H194.335V133H198.355L208.795 145.75V133H213.595ZM243.319 150.1V154H227.059V133H242.929V136.9H231.889V141.46H241.639V145.24H231.889V150.1H243.319ZM247.186 133H252.046V150.04H262.576V154H247.186V133Z" fill="#FFD067"/>
<path d="M109.992 202.185H125.892C129.692 202.185 133.042 202.919 135.942 204.385C138.875 205.819 141.142 207.852 142.742 210.485C144.375 213.119 145.192 216.185 145.192 219.685C145.192 223.185 144.375 226.252 142.742 228.885C141.142 231.519 138.875 233.569 135.942 235.035C133.042 236.469 129.692 237.185 125.892 237.185H109.992V202.185ZM125.492 230.535C128.992 230.535 131.775 229.569 133.842 227.635C135.942 225.669 136.992 223.019 136.992 219.685C136.992 216.352 135.942 213.719 133.842 211.785C131.775 209.819 128.992 208.835 125.492 208.835H118.092V230.535H125.492ZM168.25 237.785C164.617 237.785 161.334 237.002 158.4 235.435C155.5 233.869 153.217 231.719 151.55 228.985C149.917 226.219 149.1 223.119 149.1 219.685C149.1 216.252 149.917 213.169 151.55 210.435C153.217 207.669 155.5 205.502 158.4 203.935C161.334 202.369 164.617 201.585 168.25 201.585C171.884 201.585 175.15 202.369 178.05 203.935C180.95 205.502 183.234 207.669 184.9 210.435C186.567 213.169 187.4 216.252 187.4 219.685C187.4 223.119 186.567 226.219 184.9 228.985C183.234 231.719 180.95 233.869 178.05 235.435C175.15 237.002 171.884 237.785 168.25 237.785ZM168.25 230.885C170.317 230.885 172.184 230.419 173.85 229.485C175.517 228.519 176.817 227.185 177.75 225.485C178.717 223.785 179.2 221.852 179.2 219.685C179.2 217.519 178.717 215.585 177.75 213.885C176.817 212.185 175.517 210.869 173.85 209.935C172.184 208.969 170.317 208.485 168.25 208.485C166.184 208.485 164.317 208.969 162.65 209.935C160.984 210.869 159.667 212.185 158.7 213.885C157.767 215.585 157.3 217.519 157.3 219.685C157.3 221.852 157.767 223.785 158.7 225.485C159.667 227.185 160.984 228.519 162.65 229.485C164.317 230.419 166.184 230.885 168.25 230.885ZM225.338 237.185L225.288 216.185L214.988 233.485H211.338L201.088 216.635V237.185H193.488V202.185H200.188L213.288 223.935L226.188 202.185H232.838L232.938 237.185H225.338Z" fill="#FFD067"/>
</svg>
